<svg xmlns="http://www.w3.org/2000/svg" width="16.531" height="19.563" viewBox="0 0 16.531 19.563">
  <defs>
    <style>
      .cls-1 {
        fill: #3eb2c0;
        fill-rule: evenodd;
      }
    </style>
  </defs>
  <path class="cls-1" d="M370.94,504.014a5.259,5.259,0,0,0-7.372,0,5.119,5.119,0,0,0,0,7.292,5.259,5.259,0,0,0,7.371,0A5.123,5.123,0,0,0,370.94,504.014Zm-2.144,2.838,1.7-1.687a4.093,4.093,0,0,1,.835,2.009A2.812,2.812,0,0,1,368.8,506.852Zm-1.738,1.718,0.157-.154,2.516,2.489a4.162,4.162,0,0,1-1.946.786A3.8,3.8,0,0,0,367.058,508.57Zm-0.62-.923-0.164.162a3.936,3.936,0,0,0-2.316-.752,4.006,4.006,0,0,0-.78.077,4.085,4.085,0,0,1,.8-1.926Zm0.8-.793-0.024.023-2.468-2.441a4.172,4.172,0,0,1,1.846-.789A3.857,3.857,0,0,0,367.239,506.854Zm0.753,0.792,0.017-.016a3.952,3.952,0,0,0,3.3.684,4.087,4.087,0,0,1-.8,1.825Zm0.036-1.573a2.751,2.751,0,0,1-.283-2.45,4.183,4.183,0,0,1,1.972.78Zm-2.544,2.517-1.523,1.506a4,4,0,0,1-.773-1.843A2.8,2.8,0,0,1,365.484,508.59Zm0.787,0.759a2.714,2.714,0,0,1,.383,2.332,4.176,4.176,0,0,1-1.921-.81Zm-1.526-6.8a4.711,4.711,0,0,0,3.336-1.364,4.635,4.635,0,0,0,0-6.6,4.761,4.761,0,0,0-6.671,0,4.634,4.634,0,0,0,0,6.6A4.709,4.709,0,0,0,364.745,502.552Zm-0.72-7.43c0,0.064.006,0.128,0.011,0.193a0.511,0.511,0,0,0-.043.916,0.523,0.523,0,0,0,.277.066,3.048,3.048,0,0,0,.15.328,0.512,0.512,0,0,0,.045.677,0.519,0.519,0,0,0,.367.15c0.043-.013.111-0.008,0.164-0.027l0.062,0.063c0.023,0.022.046,0.045,0.071,0.067a0.513,0.513,0,0,0,.118.544,0.526,0.526,0,0,0,.7.03,3.622,3.622,0,0,0,.373.162,0.518,0.518,0,0,0,.377.528,0.519,0.519,0,0,0,.629-0.315c0.049,0,.1,0,0.148.006l0,0.057a0.513,0.513,0,0,0,.168.356,0.528,0.528,0,0,0,.367.135h0.006a0.534,0.534,0,0,0,.229-0.064,3.625,3.625,0,0,1-.9,1.467,3.684,3.684,0,0,1-1.484.892,0.509,0.509,0,0,0-.073-0.6,0.523,0.523,0,0,0-.36-0.165l-0.118,0c0-.041-0.006-0.082-0.01-0.124l0.024-.006a0.514,0.514,0,0,0,.36-0.634,0.524,0.524,0,0,0-.64-0.356h0c-0.043-.1-0.091-0.2-0.143-0.3l0.057-.056a0.51,0.51,0,0,0,0-.727,0.52,0.52,0,0,0-.368-0.15h0a0.518,0.518,0,0,0-.311.1l-0.069-.066a0.513,0.513,0,0,0-.056-0.662,0.532,0.532,0,0,0-.735,0l-0.072.07c-0.078-.037-0.158-0.073-0.239-0.106l0.01-.038a0.5,0.5,0,0,0-.046-0.391,0.514,0.514,0,0,0-.314-0.244,0.522,0.522,0,0,0-.64.357l-0.021.076q-0.068-.006-0.135-0.009l0-.078a0.533,0.533,0,0,0-.542-0.491,0.507,0.507,0,0,0-.174.038,3.633,3.633,0,0,1,.906-1.478,3.694,3.694,0,0,1,1.493-.895A0.514,0.514,0,0,0,364.025,495.122Zm1.4,2.8h0Zm2.5-.98h0a0.514,0.514,0,0,0-.316.124c-0.007-.014-0.014-0.028-0.022-0.042a0.681,0.681,0,0,1-.836-0.416,0.518,0.518,0,0,0-.367-0.149h0a0.525,0.525,0,0,0-.368.148l-0.189.187-0.036-.035c-0.008-.008-0.015-0.016-0.024-0.024l0.2-.2a2.128,2.128,0,0,1-.162-1.19,0.512,0.512,0,0,0-.242-0.306l0.02-.018a0.517,0.517,0,0,0,.152-0.342,0.509,0.509,0,0,0-.1-0.321,3.687,3.687,0,0,1,1.705.953,3.648,3.648,0,0,1,.991,1.8A0.551,0.551,0,0,0,367.928,496.945Zm-6.423,1.925a0.524,0.524,0,0,0,.345-0.15l0.019-.02a0.7,0.7,0,0,1,.777.4,0.527,0.527,0,0,0,.735,0l0.1-.1c0.021,0.018.041,0.038,0.061,0.057l-0.087.085a0.511,0.511,0,0,0,0,.726,0.525,0.525,0,0,0,.225.13,0.509,0.509,0,0,0,.2.7c0.013,0.008.028,0.015,0.042,0.022a0.5,0.5,0,0,0-.125.313,0.511,0.511,0,0,0,.136.369l0.034,0.033a3.713,3.713,0,0,1-1.815-.978,3.651,3.651,0,0,1-.964-1.686A0.517,0.517,0,0,0,361.505,498.87Zm0.559,4.178-0.028-.075-0.02-.02a3.223,3.223,0,0,0-2.838-1.674,3.181,3.181,0,0,0-2.824,1.658l-0.069.1,0,0.026a3.141,3.141,0,0,0-.329,1.4,3.188,3.188,0,0,0,2.058,2.973,0.433,0.433,0,0,0,.115.043,3.244,3.244,0,0,0,1.053.175,2.97,2.97,0,0,0,1.009-.167,0.4,0.4,0,0,0,.144-0.044,3.237,3.237,0,0,0,1.285-.892,0.434,0.434,0,0,0,.119-0.143,3.14,3.14,0,0,0,.668-1.945A3.079,3.079,0,0,0,362.064,503.048Zm-2.25,3.676a2.392,2.392,0,0,1-1.273,0l-0.148-.361,0.152-.2h1.244l0.176,0.2Zm-1.18-1.411-0.325-.991,0.852-.613,0.853,0.613-0.326.991h-1.054Zm2.418-1.7-0.434.095-1.014-.729v-0.427l0.415-.27a2.4,2.4,0,0,1,1.174.961Zm-2.306-1.044v0.391l-1.069.768-0.361-.079-0.155-.406a2.362,2.362,0,0,1,1.134-.944Zm-1.611,1.91,0.348,0.075,0.365,1.113-0.128.171-0.483-.029a2.312,2.312,0,0,1-.4-1.018Zm3.714,0.046,0.347-.075,0.328,0.33a2.324,2.324,0,0,1-.408,1.032l-0.47.027-0.167-.186Z" transform="translate(-355.938 -493.25)"/>
</svg>
