<svg xmlns="http://www.w3.org/2000/svg" width="25" height="25" viewBox="0 0 25 25">
  <defs>
    <style>
      .cls-1 {
        fill: #888;
      }

      .cls-2 {
        fill: #fff;
        fill-rule: evenodd;
      }
    </style>
  </defs>
  <circle class="cls-1" cx="12.5" cy="12.5" r="12.5"/>
  <path class="cls-2" d="M289.541,384.572a4.045,4.045,0,0,1-.441-5.7l3.422-4.078a4,4,0,1,1,6.127,5.141l-0.512.611-1.125-.944,0.512-.611a2.531,2.531,0,1,0-3.877-3.253l-3.422,4.078a2.531,2.531,0,1,0,3.877,3.254l0.679-.809,1.125,0.944-0.679.809A4.044,4.044,0,0,1,289.541,384.572Zm-1.217,6.184a4.044,4.044,0,0,1-.441-5.695l0.572-.683,1.125,0.944-0.572.683a2.531,2.531,0,1,0,3.877,3.253l3.422-4.079a2.531,2.531,0,1,0-3.877-3.253l-0.623.743-1.125-.944,0.623-.743a4,4,0,1,1,6.127,5.141L294.01,390.2A4.044,4.044,0,0,1,288.324,390.756Z" transform="translate(-281 -370)"/>
</svg>
