<svg xmlns="http://www.w3.org/2000/svg" width="20.031" height="20" viewBox="0 0 20.031 20">
  <defs>
    <style>
      .cls-1 {
        fill: #3eb2c0;
        fill-rule: evenodd;
      }
    </style>
  </defs>
  <path class="cls-1" d="M372.086,536.9a10.012,10.012,0,1,0,0,14.165A10.047,10.047,0,0,0,372.086,536.9Zm-15.036,7.715,0.018,0.453a0.61,0.61,0,0,0,.2.423,0.586,0.586,0,0,0,.438.159,0.608,0.608,0,0,0,.4-0.178,0.615,0.615,0,0,0,.178-0.456l-0.023-.539a6.009,6.009,0,0,1,.859.046l-0.155.554a0.609,0.609,0,0,0,.423.75,0.615,0.615,0,0,0,.6-0.156,0.6,0.6,0,0,0,.154-0.265l0.171-.609a6.006,6.006,0,0,1,.743.305l-0.374.373a0.609,0.609,0,1,0,.862.861l0.578-.577a6.2,6.2,0,0,1,.586.513c0.114,0.115.227,0.241,0.35,0.39l-0.568.567a0.608,0.608,0,0,0,0,.86,0.622,0.622,0,0,0,.861,0l0.409-.408a6.045,6.045,0,0,1,.39.88l-0.7.2a0.609,0.609,0,0,0,.33,1.172l0.664-.186a6.1,6.1,0,0,1,.062.833l-0.456-.019h-0.027a0.608,0.608,0,0,0-.025,1.216l0.4,0.017a6.017,6.017,0,0,1-.26.941,8.77,8.77,0,0,1-7.894-7.887A6.141,6.141,0,0,1,357.05,544.617Zm8.575,7.23,0.831,0.035a0.625,0.625,0,0,0,.457-0.178,0.612,0.612,0,0,0,.176-0.4,0.608,0.608,0,0,0-.581-0.634l-0.779-.033a7.577,7.577,0,0,0-.1-1.219l0.521-.146a0.591,0.591,0,0,0,.264-0.155,0.605,0.605,0,0,0,.157-0.6,0.612,0.612,0,0,0-.75-0.421l-0.493.138a7.375,7.375,0,0,0-.677-1.441l0.429-.429a0.609,0.609,0,1,0-.862-0.86l-0.3.295c-0.123-.143-0.239-0.269-0.355-0.385a7.141,7.141,0,0,0-.581-0.519l0.285-.285a0.611,0.611,0,0,0,0-.861,0.625,0.625,0,0,0-.862,0l-0.45.449a7.334,7.334,0,0,0-1.317-.577l0.164-.587a0.594,0.594,0,0,0-.055-0.461,0.6,0.6,0,0,0-.367-0.288,0.616,0.616,0,0,0-.751.421l-0.177.631a7.532,7.532,0,0,0-1.244-.08l-0.03-.7a0.637,0.637,0,0,0-.635-0.581,0.61,0.61,0,0,0-.583.633L357,543.38a7.307,7.307,0,0,0-.792.191,8.781,8.781,0,0,1,8.078-8.35,7.834,7.834,0,0,0-.2.76l-0.466-.021h-0.027a0.609,0.609,0,0,0-.025,1.217l0.369,0.015a7.406,7.406,0,0,0,.076,1.352l-0.3.082a0.611,0.611,0,0,0-.367.289,0.608,0.608,0,0,0,.232.827,0.607,0.607,0,0,0,.464.056l0.244-.068a7.223,7.223,0,0,0,.662,1.479l-0.191.19a0.609,0.609,0,1,0,.861.861l0.045-.045c0.143,0.172.283,0.326,0.424,0.467a6.521,6.521,0,0,0,.5.45l-0.074.074a0.609,0.609,0,1,0,.862.86l0.223-.224a7.243,7.243,0,0,0,1.588.685l-0.079.28a0.609,0.609,0,0,0,1.018.594,0.6,0.6,0,0,0,.156-0.266l0.1-.355a7.368,7.368,0,0,0,1.271.049l0.029,0.666a0.6,0.6,0,0,0,.2.421,0.616,0.616,0,0,0,.437.16,0.608,0.608,0,0,0,.583-0.634l-0.033-.772a7.315,7.315,0,0,0,.921-0.259,8.783,8.783,0,0,1-8.377,8.358A7.668,7.668,0,0,0,365.625,551.847Zm7.191-8.412-0.02-.454a0.612,0.612,0,0,0-.61-0.582h-0.025a0.609,0.609,0,0,0-.582.633l0.024,0.58a6.229,6.229,0,0,1-.886-0.021l0.233-.828a0.611,0.611,0,0,0-.422-0.751,0.608,0.608,0,0,0-.75.423l-0.258.917a6.178,6.178,0,0,1-1.019-.409l0.607-.606a0.608,0.608,0,0,0,0-.86,0.624,0.624,0,0,0-.862,0l-0.79.789a5.464,5.464,0,0,1-.923-0.917l0.818-.817a0.613,0.613,0,0,0,.18-0.431,0.61,0.61,0,0,0-1.041-.43l-0.643.642a6.129,6.129,0,0,1-.383-0.913l0.957-.269a0.6,0.6,0,0,0,.264-0.153,0.608,0.608,0,0,0-.594-1.017l-0.892.25a6.15,6.15,0,0,1-.041-0.968l0.874,0.038a0.621,0.621,0,0,0,.455-0.178,0.609,0.609,0,0,0-.405-1.039l-0.764-.032a6.321,6.321,0,0,1,.259-0.823,8.776,8.776,0,0,1,8.177,7.91A6.19,6.19,0,0,1,372.816,543.435Z" transform="translate(-355 -534)"/>
</svg>
