<svg xmlns="http://www.w3.org/2000/svg" width="30" height="20" viewBox="0 0 30 20">
  <defs>
    <style>
      .cls-1 {
        fill: #3eb2c0;
      }

      .cls-2 {
        fill: #fff;
        fill-rule: evenodd;
      }
    </style>
  </defs>
  <rect class="cls-1" width="30" height="20" rx="4.824" ry="4.824"/>
  <path id="bet" class="cls-2" d="M818.627,589.035h3.442c1.871,0,2.77-.864,2.77-2.279v-0.3a1.876,1.876,0,0,0-1.787-1.979,1.666,1.666,0,0,0,1.391-1.727V582.5c0-1.415-.911-2.111-2.746-2.111h-3.07v8.648Zm1.187-4.03h1.547c1.727,0,2.255.408,2.255,1.463v0.264c0,1.019-.636,1.271-1.991,1.271h-1.811v-3Zm1.451-3.6c1.355,0,1.967.1,1.967,1.115v0.216c0,1.079-.684,1.295-1.883,1.295h-1.535v-2.626h1.451Zm4.682-1.02v8.648h5.469v-1.02h-4.282v-2.9h3.946v-1.02h-3.946v-2.686h4.2v-1.02h-5.385Zm9.91,8.648v-7.628H838.5v-1.02h-6.464v1.02h2.638v7.628h1.188Z" transform="translate(-814 -575)"/>
</svg>
