<svg xmlns="http://www.w3.org/2000/svg" width="6.876" height="9" viewBox="0 0 6.876 9">
  <defs>
    <style>
      .cls-1 {
        fill: #195eea;
        fill-rule: evenodd;
      }
    </style>
  </defs>
  <path id="down" class="cls-1" d="M761,991a0.585,0.585,0,0,0,.215-0.035,0.319,0.319,0,0,0,.12-0.035,0.858,0.858,0,0,0,.274-0.184l2.575-2.609a0.9,0.9,0,0,0,0-1.24,0.855,0.855,0,0,0-1.218,0l-1.108,1.126v-5.149a0.858,0.858,0,1,0-1.716,0v5.149l-1.107-1.126a0.852,0.852,0,0,0-1.219,0,0.887,0.887,0,0,0,0,1.24l2.575,2.609a0.858,0.858,0,0,0,.274.184,0.319,0.319,0,0,0,.12.035A0.585,0.585,0,0,0,761,991Z" transform="translate(-757.562 -982)"/>
</svg>
