<?xml version="1.0" encoding="utf-8"?>
<!-- Generator: Adobe Illustrator 24.3.0, SVG Export Plug-In . SVG Version: 6.00 Build 0)  -->
<svg version="1.1" id="Layer_1" xmlns="http://www.w3.org/2000/svg" xmlns:xlink="http://www.w3.org/1999/xlink" x="0px" y="0px"
	 viewBox="0 0 20 20" style="enable-background:new 0 0 20 20;" xml:space="preserve">
<style type="text/css">
	.st0{fill:none;stroke:#000000;stroke-width:2;stroke-linecap:round;stroke-linejoin:round;stroke-miterlimit:10;}
	.st1{fill:#FFFFFF;}
	.st2{fill:#747373;}
	.st3{fill:#DD052B;}
	.st4{fill:#FFFFFF;stroke:#000000;stroke-miterlimit:10;stroke-dasharray:4;}
	.st5{fill:none;stroke:#000000;stroke-miterlimit:10;}
	.st6{fill:none;stroke:#000000;stroke-miterlimit:10;stroke-dasharray:4,4;}
	.st7{fill:#010101;}
	.st8{fill:#292A2A;}
	.st9{fill:#FEFEFE;}
	.st10{fill:#FF0000;}
	.st11{fill:none;stroke:#000000;stroke-width:2;stroke-linejoin:round;stroke-miterlimit:10;}
	.st12{fill:#FFFFFF;stroke:#000000;stroke-width:1.9221;stroke-linecap:round;stroke-linejoin:round;stroke-miterlimit:10;}
	.st13{fill:#FFFFFF;stroke:#000000;stroke-width:2;stroke-linecap:round;stroke-linejoin:round;stroke-miterlimit:10;}
	.st14{fill:#E6E6E6;}
	.st15{fill-rule:evenodd;clip-rule:evenodd;}
	.st16{enable-background:new    ;}
</style>
<g>
	<g>
		<path d="M14.27,20H3.94C1.77,20,0,18.23,0,16.06V5.73C0,3.56,1.77,1.8,3.94,1.8h6.15c0.37,0,0.67,0.3,0.67,0.67
			s-0.3,0.67-0.67,0.67H3.94c-1.43,0-2.6,1.17-2.6,2.6v10.33c0,1.43,1.17,2.6,2.6,2.6h10.33c1.43,0,2.6-1.17,2.6-2.6V9.91
			c0-0.37,0.3-0.67,0.67-0.67s0.67,0.3,0.67,0.67v6.15C18.2,18.23,16.44,20,14.27,20z"/>
	</g>
	<path d="M8.39,12.28c-0.18,0-0.35-0.07-0.47-0.2c-0.15-0.15-0.22-0.36-0.19-0.57l0.55-3.81C8.3,7.56,8.37,7.43,8.47,7.33L15.6,0.2
		c0.26-0.26,0.69-0.26,0.95,0l3.26,3.26c0.26,0.26,0.26,0.69,0,0.95l-7.13,7.13c-0.1,0.1-0.23,0.17-0.38,0.19l-3.81,0.55
		C8.46,12.28,8.43,12.28,8.39,12.28z M9.58,8.12l-0.39,2.7l2.7-0.39l6.5-6.5l-2.31-2.31L9.58,8.12z"/>
</g>
</svg>
