<?xml version="1.0" encoding="utf-8"?>
<!-- Generator: Adobe Illustrator 24.3.0, SVG Export Plug-In . SVG Version: 6.00 Build 0)  -->
<svg version="1.1" id="Layer_1" xmlns="http://www.w3.org/2000/svg" xmlns:xlink="http://www.w3.org/1999/xlink" x="0px" y="0px"
	 viewBox="0 0 20 20" style="enable-background:new 0 0 20 20;" xml:space="preserve">
<style type="text/css">
	.st0{fill:none;stroke:#000000;stroke-width:2;stroke-linecap:round;stroke-linejoin:round;stroke-miterlimit:10;}
	.st1{fill:#FFFFFF;}
	.st2{fill:#747373;}
	.st3{fill:#DD052B;}
	.st4{fill:#FFFFFF;stroke:#000000;stroke-miterlimit:10;stroke-dasharray:4;}
	.st5{fill:none;stroke:#000000;stroke-miterlimit:10;}
	.st6{fill:none;stroke:#000000;stroke-miterlimit:10;stroke-dasharray:4,4;}
	.st7{fill:#010101;}
	.st8{fill:#292A2A;}
	.st9{fill:#FEFEFE;}
	.st10{fill:#FF0000;}
	.st11{fill:none;stroke:#000000;stroke-width:2;stroke-linejoin:round;stroke-miterlimit:10;}
	.st12{fill:#FFFFFF;stroke:#000000;stroke-width:1.9221;stroke-linecap:round;stroke-linejoin:round;stroke-miterlimit:10;}
	.st13{fill:#FFFFFF;stroke:#000000;stroke-width:2;stroke-linecap:round;stroke-linejoin:round;stroke-miterlimit:10;}
	.st14{fill:#E6E6E6;}
	.st15{fill-rule:evenodd;clip-rule:evenodd;}
	.st16{enable-background:new    ;}
</style>
<g>
	<path d="M10,20c-0.23,0-0.44-0.12-0.57-0.32l-1.98-3.22H6.48C2.91,16.46,0,13.49,0,9.84V6.62C0,2.97,2.91,0,6.48,0h7.04
		C17.09,0,20,2.97,20,6.62v3.22c0,3.65-2.91,6.62-6.48,6.62h-0.97l-1.98,3.22C10.44,19.88,10.23,20,10,20z M6.48,1.37
		c-2.83,0-5.14,2.36-5.14,5.25v3.22c0,2.9,2.31,5.25,5.14,5.25h1.34c0.23,0,0.44,0.12,0.57,0.32L10,18.03l1.61-2.62
		c0.12-0.2,0.34-0.32,0.57-0.32h1.34c2.83,0,5.14-2.36,5.14-5.25V6.62c0-2.9-2.31-5.25-5.14-5.25H6.48z"/>
	<path d="M13.41,7.06H6.59c-0.37,0-0.67-0.31-0.67-0.69c0-0.38,0.3-0.69,0.67-0.69h6.83c0.37,0,0.67,0.31,0.67,0.69
		C14.08,6.76,13.78,7.06,13.41,7.06z"/>
	<path d="M13.41,10.88H6.59c-0.37,0-0.67-0.31-0.67-0.69c0-0.38,0.3-0.69,0.67-0.69h6.83c0.37,0,0.67,0.31,0.67,0.69
		C14.08,10.58,13.78,10.88,13.41,10.88z"/>
</g>
</svg>
