<?xml version="1.0" encoding="utf-8"?>
<!-- Generator: Adobe Illustrator 24.3.0, SVG Export Plug-In . SVG Version: 6.00 Build 0)  -->
<svg version="1.1" id="Layer_1" xmlns="http://www.w3.org/2000/svg" xmlns:xlink="http://www.w3.org/1999/xlink" x="0px" y="0px"
	 viewBox="0 0 20 20" style="enable-background:new 0 0 20 20;" xml:space="preserve">
<style type="text/css">
	.st0{fill:none;stroke:#000000;stroke-width:2;stroke-linecap:round;stroke-linejoin:round;stroke-miterlimit:10;}
	.st1{fill:#FFFFFF;}
	.st2{fill:#747373;}
	.st3{fill:#DD052B;}
	.st4{fill:#FFFFFF;stroke:#000000;stroke-miterlimit:10;stroke-dasharray:4;}
	.st5{fill:none;stroke:#000000;stroke-miterlimit:10;}
	.st6{fill:none;stroke:#000000;stroke-miterlimit:10;stroke-dasharray:4,4;}
	.st7{fill:#010101;}
	.st8{fill:#292A2A;}
	.st9{fill:#FEFEFE;}
	.st10{fill:#FF0000;}
	.st11{fill:none;stroke:#000000;stroke-width:2;stroke-linejoin:round;stroke-miterlimit:10;}
	.st12{fill:#FFFFFF;stroke:#000000;stroke-width:1.9221;stroke-linecap:round;stroke-linejoin:round;stroke-miterlimit:10;}
	.st13{fill:#FFFFFF;stroke:#000000;stroke-width:2;stroke-linecap:round;stroke-linejoin:round;stroke-miterlimit:10;}
	.st14{fill:#E6E6E6;}
	.st15{fill-rule:evenodd;clip-rule:evenodd;}
	.st16{enable-background:new    ;}
</style>
<g>
	<path d="M15.18,20H4.82C2.16,20,0,17.84,0,15.18V4.82C0,2.16,2.16,0,4.82,0h10.35C17.84,0,20,2.16,20,4.82v10.35
		C20,17.84,17.84,20,15.18,20z M4.82,1.34c-1.92,0-3.48,1.56-3.48,3.48v10.35c0,1.92,1.56,3.48,3.48,3.48h10.35
		c1.92,0,3.48-1.56,3.48-3.48V4.82c0-1.92-1.56-3.48-3.48-3.48H4.82z"/>
	<path d="M7.89,13.76c-0.12,0-0.24-0.03-0.34-0.09c-0.2-0.12-0.33-0.34-0.33-0.58V6.91c0-0.24,0.12-0.46,0.33-0.58
		C7.75,6.21,8,6.21,8.21,6.32l5.69,3.09c0.22,0.12,0.35,0.34,0.35,0.59s-0.13,0.47-0.35,0.59l-5.69,3.09
		C8.11,13.73,8,13.76,7.89,13.76z M8.56,8.04v3.93L12.17,10L8.56,8.04z"/>
</g>
</svg>
