<?xml version="1.0" encoding="utf-8"?>
<!-- Generator: Adobe Illustrator 25.2.0, SVG Export Plug-In . SVG Version: 6.00 Build 0)  -->
<svg version="1.1" id="Layer_1" xmlns="http://www.w3.org/2000/svg" xmlns:xlink="http://www.w3.org/1999/xlink" x="0px" y="0px"
	 viewBox="0 0 20 20" style="enable-background:new 0 0 20 20;" xml:space="preserve">
<path d="M19.32,16.05l-3.35-3.35c0.7-1.24,1.1-2.66,1.1-4.17C17.07,3.83,13.24,0,8.54,0S0,3.83,0,8.54s3.83,8.54,8.54,8.54
	c1.52,0,2.94-0.4,4.17-1.1l3.35,3.35C16.5,19.76,17.08,20,17.69,20c0.62,0,1.2-0.24,1.63-0.68C19.76,18.88,20,18.3,20,17.69
	C20,17.06,19.76,16.48,19.32,16.05z M2.16,11.57l2.81-2.52L7,11.3c0.14,0.15,0.33,0.24,0.54,0.24s0.4-0.09,0.54-0.24l2.98-3.32v0.69
	c0,0.4,0.33,0.73,0.73,0.73s0.73-0.33,0.73-0.73v-2.6c0-0.01-0.01-0.02-0.01-0.03c0-0.08-0.02-0.15-0.05-0.23
	c0-0.01,0-0.02-0.01-0.03V5.78c-0.03-0.08-0.08-0.14-0.14-0.2c-0.02-0.02-0.03-0.03-0.05-0.04c-0.05-0.04-0.1-0.08-0.16-0.11
	c-0.02-0.01-0.04-0.02-0.07-0.03c-0.08-0.03-0.17-0.05-0.25-0.05h-2.6c-0.4,0-0.73,0.33-0.73,0.73c0,0.4,0.33,0.73,0.73,0.73h0.96
	L7.55,9.73L5.57,7.54C5.3,7.24,4.84,7.22,4.54,7.49l-2.9,2.6c-0.11-0.5-0.18-1.02-0.18-1.55c0-3.9,3.17-7.07,7.07-7.07
	s7.07,3.17,7.07,7.07s-3.17,7.07-7.07,7.07C5.73,15.6,3.3,13.95,2.16,11.57z M18.29,18.28c-0.32,0.32-0.88,0.32-1.2,0l-3.15-3.15
	c0.44-0.36,0.84-0.76,1.2-1.2l3.15,3.15c0.16,0.16,0.25,0.37,0.25,0.6C18.54,17.91,18.45,18.12,18.29,18.28z"/>
</svg>
