<svg xmlns="http://www.w3.org/2000/svg" width="20" height="20" viewBox="0 0 20 20">
  <defs>
    <style>
      .cls-1 {
        fill: #3eb2c0;
        fill-rule: evenodd;
      }
    </style>
  </defs>
  <path id="icon_new" class="cls-1" d="M1218.92,543.194a4.005,4.005,0,0,0-3.11-3.113A4.046,4.046,0,0,0,1215,540h-8a4.023,4.023,0,0,0-1.56.314,3.973,3.973,0,0,0-1.27.858,4.532,4.532,0,0,0-.49.592,4.17,4.17,0,0,0-.6,1.43,4.269,4.269,0,0,0-.08.806,4,4,0,0,0-4,4v8a4,4,0,0,0,4,4h8a4,4,0,0,0,4-4,4.046,4.046,0,0,0,.81-0.081,4.087,4.087,0,0,0,.99-0.363,4.02,4.02,0,0,0,1.03-.728,4.355,4.355,0,0,0,1.09-2.022A4.269,4.269,0,0,0,1219,552v-8A4.269,4.269,0,0,0,1218.92,543.194ZM1211,558.5h-8a2.5,2.5,0,0,1-2.5-2.5v-8a2.5,2.5,0,0,1,2.5-2.5V552a4,4,0,0,0,4,4h6.5A2.5,2.5,0,0,1,1211,558.5Zm3.29-4H1207a2.459,2.459,0,0,1-.91-0.178l5.41-5.7v1.843a0.75,0.75,0,0,0,1.5,0v-3.72c0-.011-0.01-0.02-0.01-0.031a0.549,0.549,0,0,0-.05-0.25v-0.014a0.839,0.839,0,0,0-.15-0.214,0.212,0.212,0,0,0-.05-0.049,0.754,0.754,0,0,0-.16-0.106,0.286,0.286,0,0,0-.07-0.033,0.731,0.731,0,0,0-.26-0.053h-3.72a0.75,0.75,0,0,0,0,1.5h1.97l-5.58,5.876a2.421,2.421,0,0,1-.42-1.376v-8a2.487,2.487,0,0,1,.43-1.4,2.576,2.576,0,0,1,.67-0.675,2.79,2.79,0,0,1,.43-0.231,2.491,2.491,0,0,1,.97-0.2h8a2.491,2.491,0,0,1,.97.2,2.79,2.79,0,0,1,.43.231,2.576,2.576,0,0,1,.67.675,2.487,2.487,0,0,1,.43,1.4v8a2.487,2.487,0,0,1-.43,1.4,2.576,2.576,0,0,1-.67.675,2.79,2.79,0,0,1-.43.231,2.491,2.491,0,0,1-.97.2h-0.71Z" transform="translate(-1199 -540)"/>
</svg>
