<?xml version="1.0" encoding="utf-8"?>
<!-- Generator: Adobe Illustrator 25.2.1, SVG Export Plug-In . SVG Version: 6.00 Build 0)  -->
<svg version="1.1" id="Layer_1" xmlns="http://www.w3.org/2000/svg" xmlns:xlink="http://www.w3.org/1999/xlink" x="0px" y="0px"
	 viewBox="0 0 16 16" style="enable-background:new 0 0 16 16;" xml:space="preserve">
<g>
	<path d="M11.13,10.58c0.22-0.35,0.11-0.81-0.24-1.03L8.3,7.94V4.53c0-0.41-0.34-0.75-0.75-0.75S6.8,4.11,6.8,4.53v3.83
		c0,0.26,0.13,0.5,0.36,0.64l2.95,1.82c0.12,0.08,0.26,0.11,0.39,0.11C10.75,10.93,10.99,10.81,11.13,10.58z"/>
	<path d="M8,0C3.59,0,0,3.59,0,8c0,2.31,1.03,4.5,2.75,6.01l-0.53,1.01c-0.11,0.21-0.1,0.47,0.02,0.67c0.13,0.2,0.35,0.32,0.59,0.31
		l3.1-0.11c0.48-0.02,0.8-0.62,0.54-1.03l-1.65-2.62c-0.13-0.2-0.35-0.32-0.59-0.31s-0.46,0.14-0.57,0.36l-0.35,0.65
		C1.97,11.66,1.19,9.91,1.19,8c0-3.75,3.05-6.81,6.81-6.81S14.81,4.25,14.81,8c0,2.67-1.57,5.1-4,6.2c-0.3,0.14-0.43,0.49-0.3,0.79
		c0.1,0.22,0.32,0.35,0.54,0.35c0.08,0,0.17-0.02,0.25-0.05C14.16,13.99,16,11.13,16,8C16,3.59,12.41,0,8,0z"/>
</g>
</svg>
