<svg xmlns="http://www.w3.org/2000/svg" width="14" height="16" viewBox="0 0 14 16">
  <defs>
    <style>
      .cls-1 {
        fill: #fff;
        fill-rule: evenodd;
      }
    </style>
  </defs>
  <path id="icon_locked" data-name="icon locked" class="cls-1" d="M1013,773.038v6.871a3.132,3.132,0,0,0,3.17,3.091h7.65a3.135,3.135,0,0,0,3.18-3.091v-6.871h-14Zm7.87,5.465v1.046a0.861,0.861,0,0,1-.87.852,0.87,0.87,0,0,1-.88-0.852V778.5a1.559,1.559,0,0,1-.73-1.317,1.611,1.611,0,0,1,3.22,0A1.546,1.546,0,0,1,1020.87,778.5Zm-3.2-7.378a2.331,2.331,0,0,1,4.66,0v1.3h1.91v-1.3a4.242,4.242,0,0,0-8.48,0v1.3h1.91v-1.3Z" transform="translate(-1013 -767)"/>
</svg>
