<svg xmlns="http://www.w3.org/2000/svg" width="12" height="12" viewBox="0 0 12 12">
  <defs>
    <style>
      .cls-1 {
        fill: #aaa;
        fill-rule: evenodd;
      }
    </style>
  </defs>
  <path class="cls-1" d="M1122.38,429.375a0.626,0.626,0,0,0-.63.625,4.75,4.75,0,0,1-8.05,3.416h0.88a0.625,0.625,0,1,0,0-1.25h-2.33a0.624,0.624,0,0,0-.62.625v2.333a0.625,0.625,0,1,0,1.25,0v-0.769A5.927,5.927,0,0,0,1117,436a6.006,6.006,0,0,0,6-6A0.624,0.624,0,0,0,1122.38,429.375Zm-10.13.625a4.749,4.749,0,0,1,8.05-3.416h-0.88a0.625,0.625,0,1,0,0,1.25h2.33a0.624,0.624,0,0,0,.62-0.625v-2.333a0.625,0.625,0,1,0-1.25,0v0.768A5.931,5.931,0,0,0,1117,424a6.006,6.006,0,0,0-6,6A0.625,0.625,0,1,0,1112.25,430Z" transform="translate(-1111 -424)"/>
</svg>
