<svg xmlns="http://www.w3.org/2000/svg" width="16" height="18" viewBox="0 0 16 18">
  <defs>
    <style>
      .cls-1 {
        fill: #fff;
        fill-rule: evenodd;
      }
    </style>
  </defs>
  <path id="icon" class="cls-1" d="M1197.59,383.621h-3.94V381.73a0.734,0.734,0,0,0-.74-0.73h-4.82a0.734,0.734,0,0,0-.74.73v1.891h-3.93a0.907,0.907,0,1,0,0,1.814h14.17A0.907,0.907,0,1,0,1197.59,383.621Zm-8.76-1.161h3.34v1.161h-3.34V382.46Zm-5.23,4.2v10.513a1.838,1.838,0,0,0,1.85,1.824h10.11a1.838,1.838,0,0,0,1.85-1.824V386.663H1183.6Zm5.51,8.625a0.74,0.74,0,0,1-1.48,0v-5.564a0.74,0.74,0,0,1,1.48,0v5.564Zm4.27,0a0.743,0.743,0,0,1-.75.73,0.734,0.734,0,0,1-.74-0.73v-5.564a0.734,0.734,0,0,1,.74-0.73,0.743,0.743,0,0,1,.75.73v5.564Z" transform="translate(-1182.5 -381)"/>
</svg>
