<svg xmlns="http://www.w3.org/2000/svg" width="184" height="30" viewBox="0 0 184 30">
  <defs>
    <style>
      .cls-1 {
        fill: #fff;
        fill-rule: evenodd;
      }
    </style>
  </defs>
  <path id="neowiz" class="cls-1" d="M276.176,2724.24h3.109l13.8,11.43a17.11,17.11,0,0,1,2.242,2.1c-0.116-1.61-.191-2.74-0.191-3.34v-10.19h4.1v19.4h-3.114l-14.4-12a15.8,15.8,0,0,1-1.634-1.57c0.145,1.5.186,2.51,0.186,3.08v10.49h-4.1v-19.4Zm28.872,0h20.061v3.31H309.6v4.32h15.483v3.31H309.6v4.81h15.7v3.65H305.048v-19.4Zm29.7,0h14.436c3.693,0,4.863.94,4.863,4.58v10.23c0,3.65-1.17,4.59-4.863,4.59H334.752c-3.684,0-4.863-.94-4.863-4.59v-10.23C329.889,2725.18,331.068,2724.24,334.752,2724.24Zm14.746,15.75v-12.3H334.446v12.3H349.5Zm7.82-15.75h4.719l4.975,13.01,5.2-13.01h3.2l5.314,13.01,4.756-13.01h4.069l-7.568,19.4H378.9l-5.4-13.42-5.479,13.42h-3.147Zm36.055,0h4.562v19.4h-4.562v-19.4Zm9.078,17.29,13.716-13.84H403.82v-3.45H423.5v1.91l-13.9,13.84h13.9v3.65H402.451v-2.11Zm-149.27-8.27a1.771,1.771,0,0,0,.984,2.33,1.855,1.855,0,0,0,2.391-.97,1.774,1.774,0,0,0-.992-2.33A1.848,1.848,0,0,0,253.181,2733.26Zm-12.513,6.42a15.509,15.509,0,0,0,20.083,8.11,14.859,14.859,0,0,0,8.315-19.58,15.5,15.5,0,0,0-20.076-8.12A14.871,14.871,0,0,0,240.668,2739.68Zm16.7-15.31a2.651,2.651,0,0,1-1.65,2.59l-0.536.28,0.163,0.17a2.558,2.558,0,0,1,.33,3.05l-0.088.15,0.155,0.1a2.989,2.989,0,0,0,.846.34l0.186,0.04,0.046-.17a2.654,2.654,0,0,1,1.566-1.74,2.33,2.33,0,0,1,.871-0.18l0.241-.02-0.167-.56a2.591,2.591,0,0,1,.7-2.97,3.275,3.275,0,0,1,1-.66,5.164,5.164,0,0,1,3.217,0c0.174,0.51.806,2.67-.673,4.11a2.706,2.706,0,0,1-3.04.69l-0.586-.16-0.008.23a2.6,2.6,0,0,1-1.646,2.27c-0.105.04-.215,0.08-0.326,0.11l-0.181.05,0.041,0.17a2.786,2.786,0,0,0,.347.82l0.1,0.15,0.16-.08a2.369,2.369,0,0,1,.31-0.15,2.7,2.7,0,0,1,2.814.47l0.169,0.15,0.294-.52a3.115,3.115,0,0,1,1.436-1.4,3.2,3.2,0,0,1,1.216-.21c2.094,0,3.219,1.97,3.456,2.45a4.817,4.817,0,0,1-2.257,2.21,3.257,3.257,0,0,1-1.2.23,2.707,2.707,0,0,1-2.652-1.61l-0.294-.52-0.174.16a2.591,2.591,0,0,1-.754.47,2.771,2.771,0,0,1-2.365-.15l-0.16-.09-0.1.16a2.976,2.976,0,0,0-.347.82l-0.041.18,0.175,0.05a2.6,2.6,0,0,1,1.978,2.37l0,0.23,0.586-.16a2.734,2.734,0,0,1,3.041.69c1.478,1.44.845,3.61,0.673,4.11-0.516.17-2.741,0.79-4.216-.65a2.6,2.6,0,0,1-.706-2.97l0.171-.57-0.238-.01a2.654,2.654,0,0,1-2.437-1.92l-0.052-.18-0.183.04a3.4,3.4,0,0,0-.846.34l-0.158.1,0.094,0.16a2.546,2.546,0,0,1-.33,3.04l-0.163.17,0.536,0.29a2.633,2.633,0,0,1,1.65,2.58c0,2.04-2.023,3.14-2.5,3.37-0.486-.23-2.508-1.32-2.508-3.37a2.627,2.627,0,0,1,1.652-2.58l0.535-.29-0.165-.17a2.548,2.548,0,0,1-.33-3.04l0.091-.16-0.155-.1a3.129,3.129,0,0,0-.848-0.34l-0.182-.04-0.049.18a2.655,2.655,0,0,1-1.561,1.73,2.614,2.614,0,0,1-.878.19l-0.238.01,0.166,0.57a2.567,2.567,0,0,1-.7,2.96,3.207,3.207,0,0,1-1.009.66,5.062,5.062,0,0,1-3.206,0c-0.154-.45-0.806-2.67.67-4.11a3.158,3.158,0,0,1,1.008-.7,3.215,3.215,0,0,1,2.034.01l0.585,0.17,0.01-.24a2.611,2.611,0,0,1,1.643-2.27c0.106-.04.216-0.07,0.328-0.1l0.177-.05-0.04-.18a2.874,2.874,0,0,0-.35-0.82l-0.1-.15-0.161.09a3.332,3.332,0,0,1-.31.14,2.684,2.684,0,0,1-2.808-.46l-0.174-.16-0.293.52a3.037,3.037,0,0,1-1.438,1.4,3.005,3.005,0,0,1-1.217.21c-2.087,0-3.236-2.02-3.449-2.45a4.921,4.921,0,0,1,2.267-2.21,3.176,3.176,0,0,1,1.182-.24,2.726,2.726,0,0,1,2.655,1.63l0.293,0.51,0.171-.15a2.5,2.5,0,0,1,.761-0.47,2.651,2.651,0,0,1,2.36.15l0.161,0.08,0.1-.15a3.514,3.514,0,0,0,.348-0.82l0.043-.18-0.183-.06a2.607,2.607,0,0,1-1.971-2.37l-0.007-.23-0.581.16a2.758,2.758,0,0,1-3.046-.69c-1.479-1.44-.844-3.61-0.673-4.11,0.458-.14,2.74-0.79,4.215.65a2.606,2.606,0,0,1,.707,2.98l-0.172.57h0.239a2.651,2.651,0,0,1,2.443,1.93l0.044,0.17,0.185-.04a2.994,2.994,0,0,0,.847-0.34l0.158-.1-0.095-.15a2.573,2.573,0,0,1,.329-3.05l0.159-.17-0.529-.28a2.654,2.654,0,0,1-1.652-2.59c0-2.04,2.074-3.16,2.508-3.37C255.357,2721.24,257.372,2722.33,257.372,2724.37Z" transform="translate(-239.5 -2718.94)"/>
</svg>
