<?xml version="1.0" encoding="utf-8"?>
<!-- Generator: Adobe Illustrator 24.3.0, SVG Export Plug-In . SVG Version: 6.00 Build 0)  -->
<svg version="1.1" id="Layer_1" xmlns="http://www.w3.org/2000/svg" xmlns:xlink="http://www.w3.org/1999/xlink" x="0px" y="0px"
	 viewBox="0 0 24 24" style="enable-background:new 0 0 24 24;" xml:space="preserve">
<style type="text/css">
	.st0{fill:none;stroke:#000000;stroke-width:2;stroke-linecap:round;stroke-linejoin:round;stroke-miterlimit:10;}
	.st1{fill:#FFFFFF;}
	.st2{fill:#747373;}
	.st3{fill:#DD052B;}
	.st4{fill:#FFFFFF;stroke:#000000;stroke-miterlimit:10;stroke-dasharray:4;}
	.st5{fill:none;stroke:#000000;stroke-miterlimit:10;}
	.st6{fill:none;stroke:#000000;stroke-miterlimit:10;stroke-dasharray:4,4;}
	.st7{fill:#010101;}
	.st8{fill:#292A2A;}
	.st9{fill:#FFFF00;}
	.st10{fill:#FF0000;}
	.st11{fill:none;stroke:#000000;stroke-width:2;stroke-linejoin:round;stroke-miterlimit:10;}
	.st12{fill:#FFFFFF;stroke:#000000;stroke-width:1.9221;stroke-linecap:round;stroke-linejoin:round;stroke-miterlimit:10;}
	.st13{fill:#FFFFFF;stroke:#000000;stroke-width:2;stroke-linecap:round;stroke-linejoin:round;stroke-miterlimit:10;}
	.st14{fill:#E6E6E6;}
	.st15{fill:#637998;}
	.st16{fill-rule:evenodd;clip-rule:evenodd;}
	.st17{fill:#DF0F2D;}
	.st18{enable-background:new    ;}
	.st19{fill:#F98169;}
	.st20{fill:#6EA8CC;}
	.st21{fill:#BFBF4F;}
	.st22{fill:#F2B24C;}
	.st23{fill:#72C19F;}
	.st24{fill:#DF2D5D;}
	.st25{fill:none;stroke:#000000;stroke-width:1.2;stroke-miterlimit:10;}
	.st26{opacity:0.5;fill:#FFFFFF;}
	.st27{fill:none;stroke:#373737;stroke-width:2;stroke-linecap:round;stroke-linejoin:round;stroke-miterlimit:10;}
	.st28{fill:none;stroke:#373737;stroke-width:2.1565;stroke-linecap:round;stroke-linejoin:round;stroke-miterlimit:10;}
	.st29{fill:#373737;}
	.st30{fill:#333333;stroke:#373737;stroke-width:2;stroke-linecap:round;stroke-linejoin:round;stroke-miterlimit:10;}
	.st31{fill:#FFFFFF;stroke:#000000;stroke-width:2;stroke-miterlimit:10;}
	.st32{fill:none;stroke:#000000;stroke-width:2;stroke-miterlimit:10;}
	.st33{fill:#FFFFFF;stroke:#000000;stroke-width:2;stroke-linecap:round;stroke-miterlimit:10;}
	.st34{fill:none;stroke:#000000;stroke-width:2;stroke-linecap:round;stroke-miterlimit:10;}
	.st35{fill:#D9D9D9;}
	.st36{fill:none;stroke:#E6E6E6;stroke-width:3;stroke-miterlimit:10;}
	.st37{opacity:0.5;}
	.st38{fill:none;stroke:#FFFFFF;stroke-linecap:round;stroke-linejoin:round;stroke-miterlimit:10;}
	.st39{fill:none;stroke:#FFFFFF;stroke-miterlimit:10;}
	.st40{fill:none;stroke:#FFFFFF;stroke-linecap:round;stroke-miterlimit:10;}
	.st41{fill:none;stroke:#FFFFFF;stroke-width:1.5;stroke-linecap:round;stroke-linejoin:round;stroke-miterlimit:10;}
	.st42{fill:none;stroke:#FFFFFF;stroke-width:1.5;stroke-miterlimit:10;}
	.st43{fill:#FFFFFF;stroke:#FFFFFF;stroke-width:0.5;stroke-miterlimit:10;}
	.st44{fill:#364267;}
	.st45{fill:none;stroke:#FFFF00;stroke-width:2;stroke-linecap:round;stroke-miterlimit:10;}
</style>
<g>
	<g>
		<path class="st44" d="M20.25,0.63C20.1,0.25,19.73,0,19.32,0H15h-2.03h-1.67H9H4.68C4.27,0,3.9,0.25,3.75,0.63L0,9
			c0,1.1,1.79,3,4,3c1.35,0,2.91-0.71,3.93-1.51C8.83,11.29,10.31,12,12,12c1.69,0,3.17-0.71,4.07-1.51C17.09,11.29,18.65,12,20,12
			c2.21,0,4-1.9,4-3L20.25,0.63z M7.36,7.22L7.05,8.55L7.04,8.61C6.64,9.08,5.16,10,4,10c-0.83,0-1.55-0.55-1.87-0.94L5.35,2H8.6
			L7.36,7.22z M12,10c-1.42,0-2.53-0.73-2.93-1.16l0.24-1.2L10.83,2h2.53l1.57,6.84C14.53,9.27,13.41,10,12,10z M20,10
			c-1.16,0-2.64-0.92-3.04-1.39l0,0L15.41,2h3.23l3.22,7.06C21.55,9.45,20.83,10,20,10z"/>
	</g>
	<g>
		<path class="st44" d="M16.11,12.9C14.88,13.6,13.42,14,12,14c-1.42,0-2.88-0.4-4.11-1.1C6.77,13.51,5.39,14,4,14
			c-0.33,0-0.66-0.04-1-0.1V24h6v-4c0-1.66,1.34-3,3-3s3,1.34,3,3v4h6V13.9c-0.34,0.06-0.67,0.1-1,0.1
			C18.61,14,17.23,13.51,16.11,12.9z"/>
	</g>
</g>
</svg>
