<svg xmlns="http://www.w3.org/2000/svg" width="50" height="50" viewBox="0 0 50 50">
  <defs>
    <style>
      .cls-1 {
        fill: #fff;
        fill-rule: evenodd;
      }
    </style>
  </defs>
  <path id="거래소" class="cls-1" d="M280.251,553.573a24.833,24.833,0,0,1,15.5,0l2.081-2.6a2.657,2.657,0,0,0-2.075-4.316h-3.179a5.27,5.27,0,0,0-9.152,0h-3.179a2.657,2.657,0,0,0-2.075,4.316ZM288,556.5c-12.607,0-25,12.046-25,22.4,0,11.25,12.393,15.1,25,15.1s25-3.849,25-15.1C313,568.546,300.606,556.5,288,556.5Zm0,17.206a1.951,1.951,0,0,1,.463.062c3.23,0.209,5.787,2.57,5.787,5.45a5.637,5.637,0,0,1-4.51,5.249v1.761a1.756,1.756,0,0,1-3.48,0v-1.761a5.637,5.637,0,0,1-4.51-5.249,1.755,1.755,0,0,1,3.48,0,2.795,2.795,0,1,0,2.77-2.425,1.951,1.951,0,0,1-.463-0.062c-3.23-.209-5.787-2.57-5.787-5.449a5.635,5.635,0,0,1,4.51-5.249v-1.761a1.756,1.756,0,0,1,3.48,0v1.761a5.635,5.635,0,0,1,4.51,5.249,1.755,1.755,0,0,1-3.48,0A2.795,2.795,0,1,0,288,573.706Z" transform="translate(-263 -544)"/>
</svg>
