<svg xmlns="http://www.w3.org/2000/svg" width="42" height="50" viewBox="0 0 42 50">
  <defs>
    <style>
      .cls-1 {
        fill: #fff;
        fill-rule: evenodd;
      }
    </style>
  </defs>
  <path id="픽정보" class="cls-1" d="M653.548,574.556a3.483,3.483,0,0,1-6.408,0,3.485,3.485,0,0,1-6.41,0,3.459,3.459,0,0,0-2.958,1.636V562.707a3.453,3.453,0,0,0-6.9,0v18.868l-3.813-3.711a3.351,3.351,0,0,0-4.648,0,3.14,3.14,0,0,0,0,4.526L629.787,594H657V577.916A3.406,3.406,0,0,0,653.548,574.556Zm-12.263-3.4c0.151,0.012.3,0.036,0.444,0.056a10.908,10.908,0,0,0,3.969-8.379,11.36,11.36,0,0,0-22.712,0,10.933,10.933,0,0,0,4.368,8.7v-6a7.114,7.114,0,0,1-.534-2.7,7.525,7.525,0,0,1,15.044,0,7.124,7.124,0,0,1-.579,2.812v5.511Zm-22.452-8.323a15.514,15.514,0,0,1,31.017,0,14.727,14.727,0,0,1-2.568,8.311,7.117,7.117,0,0,1,3.063.745,7.034,7.034,0,0,1,1.2-.458,18.309,18.309,0,0,0,2.143-8.6,19.349,19.349,0,0,0-38.684,0,18.484,18.484,0,0,0,4.962,12.579,6.8,6.8,0,0,1,3.541-1.793A14.863,14.863,0,0,1,618.833,562.832Z" transform="translate(-615 -544)"/>
</svg>
