<?xml version="1.0" encoding="utf-8"?>
<!-- Generator: Adobe Illustrator 24.3.0, SVG Export Plug-In . SVG Version: 6.00 Build 0)  -->
<svg version="1.1" id="Layer_1" xmlns="http://www.w3.org/2000/svg" xmlns:xlink="http://www.w3.org/1999/xlink" x="0px" y="0px"
	 viewBox="0 0 24 24" style="enable-background:new 0 0 24 24;" xml:space="preserve">
<style type="text/css">
	.st0{fill:none;stroke:#000000;stroke-width:2;stroke-linecap:round;stroke-linejoin:round;stroke-miterlimit:10;}
	.st1{fill:#FFFFFF;}
	.st2{fill:#747373;}
	.st3{fill:#DD052B;}
	.st4{fill:#FFFFFF;stroke:#000000;stroke-miterlimit:10;stroke-dasharray:4;}
	.st5{fill:none;stroke:#000000;stroke-miterlimit:10;}
	.st6{fill:none;stroke:#000000;stroke-miterlimit:10;stroke-dasharray:4,4;}
	.st7{fill:#010101;}
	.st8{fill:#292A2A;}
	.st9{fill:#FFFF00;}
	.st10{fill:#FF0000;}
	.st11{fill:none;stroke:#000000;stroke-width:2;stroke-linejoin:round;stroke-miterlimit:10;}
	.st12{fill:#FFFFFF;stroke:#000000;stroke-width:1.9221;stroke-linecap:round;stroke-linejoin:round;stroke-miterlimit:10;}
	.st13{fill:#FFFFFF;stroke:#000000;stroke-width:2;stroke-linecap:round;stroke-linejoin:round;stroke-miterlimit:10;}
	.st14{fill:#E6E6E6;}
	.st15{fill:#637998;}
	.st16{fill-rule:evenodd;clip-rule:evenodd;}
	.st17{fill:#DF0F2D;}
	.st18{enable-background:new    ;}
	.st19{fill:#F98169;}
	.st20{fill:#6EA8CC;}
	.st21{fill:#BFBF4F;}
	.st22{fill:#F2B24C;}
	.st23{fill:#72C19F;}
	.st24{fill:#DF2D5D;}
	.st25{fill:none;stroke:#000000;stroke-width:1.2;stroke-miterlimit:10;}
	.st26{opacity:0.5;fill:#FFFFFF;}
	.st27{fill:none;stroke:#373737;stroke-width:2;stroke-linecap:round;stroke-linejoin:round;stroke-miterlimit:10;}
	.st28{fill:none;stroke:#373737;stroke-width:2.1565;stroke-linecap:round;stroke-linejoin:round;stroke-miterlimit:10;}
	.st29{fill:#373737;}
	.st30{fill:#333333;stroke:#373737;stroke-width:2;stroke-linecap:round;stroke-linejoin:round;stroke-miterlimit:10;}
	.st31{fill:#FFFFFF;stroke:#000000;stroke-width:2;stroke-miterlimit:10;}
	.st32{fill:none;stroke:#000000;stroke-width:2;stroke-miterlimit:10;}
	.st33{fill:#FFFFFF;stroke:#000000;stroke-width:2;stroke-linecap:round;stroke-miterlimit:10;}
	.st34{fill:none;stroke:#000000;stroke-width:2;stroke-linecap:round;stroke-miterlimit:10;}
	.st35{fill:#D9D9D9;}
	.st36{fill:none;stroke:#E6E6E6;stroke-width:3;stroke-miterlimit:10;}
	.st37{opacity:0.5;}
	.st38{fill:none;stroke:#FFFFFF;stroke-linecap:round;stroke-linejoin:round;stroke-miterlimit:10;}
	.st39{fill:none;stroke:#FFFFFF;stroke-miterlimit:10;}
	.st40{fill:none;stroke:#FFFFFF;stroke-linecap:round;stroke-miterlimit:10;}
	.st41{fill:none;stroke:#FFFFFF;stroke-width:1.5;stroke-linecap:round;stroke-linejoin:round;stroke-miterlimit:10;}
	.st42{fill:none;stroke:#FFFFFF;stroke-width:1.5;stroke-miterlimit:10;}
	.st43{fill:#FFFFFF;stroke:#FFFFFF;stroke-width:0.5;stroke-miterlimit:10;}
	.st44{fill:#364267;}
	.st45{fill:none;stroke:#FFFF00;stroke-width:2;stroke-linecap:round;stroke-miterlimit:10;}
</style>
<g>
	<path class="st44" d="M23.6,3.56l-2.27-0.88L20.44,0.4c-0.08-0.2-0.25-0.34-0.46-0.39c-0.21-0.04-0.43,0.02-0.58,0.17l-2.88,2.88
		c-0.18,0.18-0.23,0.44-0.14,0.67l0.74,1.9l-6.82,6.82c-0.34,0.34-0.34,0.9,0,1.24c0.34,0.34,0.9,0.34,1.24,0l6.82-6.82l1.9,0.74
		c0.23,0.09,0.5,0.04,0.68-0.14l2.88-2.88c0.15-0.15,0.21-0.37,0.17-0.58C23.94,3.81,23.8,3.64,23.6,3.56z"/>
	<path class="st44" d="M11,8.5c0.13,0,0.26,0.03,0.39,0.04l1.69-1.69C12.43,6.63,11.73,6.5,11,6.5c-3.59,0-6.5,2.91-6.5,6.5
		s2.91,6.5,6.5,6.5c3.59,0,6.5-2.91,6.5-6.5c0-0.73-0.13-1.43-0.35-2.08l-1.69,1.69c0.01,0.13,0.04,0.26,0.04,0.39
		c0,2.48-2.02,4.5-4.5,4.5c-2.48,0-4.5-2.02-4.5-4.5S8.52,8.5,11,8.5z"/>
	<path class="st44" d="M20.48,9.66c-0.33,0-0.65-0.06-0.95-0.18l-0.31-0.12C19.71,10.48,20,11.7,20,13c0,4.96-4.04,9-9,9
		c-4.96,0-9-4.04-9-9c0-4.96,4.04-9,9-9c1.3,0,2.52,0.29,3.64,0.78l-0.12-0.32c-0.24-0.62-0.23-1.29-0.01-1.88
		C13.41,2.21,12.23,2,11,2C4.92,2,0,6.92,0,13s4.92,11,11,11c6.08,0,11-4.92,11-11c0-1.23-0.21-2.41-0.58-3.51
		C21.12,9.6,20.81,9.66,20.48,9.66z"/>
</g>
</svg>
