<?xml version="1.0" encoding="utf-8"?>
<!-- Generator: Adobe Illustrator 24.3.0, SVG Export Plug-In . SVG Version: 6.00 Build 0)  -->
<svg version="1.1" id="Layer_1" xmlns="http://www.w3.org/2000/svg" xmlns:xlink="http://www.w3.org/1999/xlink" x="0px" y="0px"
	 viewBox="0 0 24 24" style="enable-background:new 0 0 24 24;" xml:space="preserve">
<style type="text/css">
	.st0{fill:none;stroke:#000000;stroke-width:2;stroke-linecap:round;stroke-linejoin:round;stroke-miterlimit:10;}
	.st1{fill:#FFFFFF;}
	.st2{fill:#747373;}
	.st3{fill:#DD052B;}
	.st4{fill:#FFFFFF;stroke:#000000;stroke-miterlimit:10;stroke-dasharray:4;}
	.st5{fill:none;stroke:#000000;stroke-miterlimit:10;}
	.st6{fill:none;stroke:#000000;stroke-miterlimit:10;stroke-dasharray:4,4;}
	.st7{fill:#010101;}
	.st8{fill:#292A2A;}
	.st9{fill:#FFFF00;}
	.st10{fill:#FF0000;}
	.st11{fill:none;stroke:#000000;stroke-width:2;stroke-linejoin:round;stroke-miterlimit:10;}
	.st12{fill:#FFFFFF;stroke:#000000;stroke-width:1.9221;stroke-linecap:round;stroke-linejoin:round;stroke-miterlimit:10;}
	.st13{fill:#FFFFFF;stroke:#000000;stroke-width:2;stroke-linecap:round;stroke-linejoin:round;stroke-miterlimit:10;}
	.st14{fill:#E6E6E6;}
	.st15{fill:#637998;}
	.st16{fill-rule:evenodd;clip-rule:evenodd;}
	.st17{fill:#DF0F2D;}
	.st18{enable-background:new    ;}
	.st19{fill:#F98169;}
	.st20{fill:#6EA8CC;}
	.st21{fill:#BFBF4F;}
	.st22{fill:#F2B24C;}
	.st23{fill:#72C19F;}
	.st24{fill:#DF2D5D;}
	.st25{fill:none;stroke:#000000;stroke-width:1.2;stroke-miterlimit:10;}
	.st26{opacity:0.5;fill:#FFFFFF;}
	.st27{fill:none;stroke:#373737;stroke-width:2;stroke-linecap:round;stroke-linejoin:round;stroke-miterlimit:10;}
	.st28{fill:none;stroke:#373737;stroke-width:2.1565;stroke-linecap:round;stroke-linejoin:round;stroke-miterlimit:10;}
	.st29{fill:#373737;}
	.st30{fill:#333333;stroke:#373737;stroke-width:2;stroke-linecap:round;stroke-linejoin:round;stroke-miterlimit:10;}
	.st31{fill:#FFFFFF;stroke:#000000;stroke-width:2;stroke-miterlimit:10;}
	.st32{fill:none;stroke:#000000;stroke-width:2;stroke-miterlimit:10;}
	.st33{fill:#FFFFFF;stroke:#000000;stroke-width:2;stroke-linecap:round;stroke-miterlimit:10;}
	.st34{fill:none;stroke:#000000;stroke-width:2;stroke-linecap:round;stroke-miterlimit:10;}
	.st35{fill:#D9D9D9;}
	.st36{fill:none;stroke:#E6E6E6;stroke-width:3;stroke-miterlimit:10;}
	.st37{opacity:0.5;}
	.st38{fill:none;stroke:#FFFFFF;stroke-linecap:round;stroke-linejoin:round;stroke-miterlimit:10;}
	.st39{fill:none;stroke:#FFFFFF;stroke-miterlimit:10;}
	.st40{fill:none;stroke:#FFFFFF;stroke-linecap:round;stroke-miterlimit:10;}
	.st41{fill:none;stroke:#FFFFFF;stroke-width:1.5;stroke-linecap:round;stroke-linejoin:round;stroke-miterlimit:10;}
	.st42{fill:none;stroke:#FFFFFF;stroke-width:1.5;stroke-miterlimit:10;}
	.st43{fill:#FFFFFF;stroke:#FFFFFF;stroke-width:0.5;stroke-miterlimit:10;}
	.st44{fill:#364267;}
	.st45{fill:none;stroke:#FFFF00;stroke-width:2;stroke-linecap:round;stroke-miterlimit:10;}
</style>
<g>
	<path class="st44" d="M12,0C5.37,0,0,5.37,0,12c0,6.63,5.37,12,12,12c6.63,0,12-5.37,12-12C24,5.37,18.63,0,12,0z M12,22
		C6.49,22,2,17.51,2,12C2,6.49,6.49,2,12,2s10,4.49,10,10C22,17.51,17.51,22,12,22z"/>
	<path class="st44" d="M12,4c-4.42,0-8,3.58-8,8s3.58,8,8,8s8-3.58,8-8S16.42,4,12,4z M9.54,10.91c0.22-1.1,0.43-2.2,0.65-3.29
		c0.03-0.17,0.08-0.19,0.23-0.11c1.02,0.54,2.04,1.08,3.07,1.61c0.14,0.08,0.14,0.15,0.01,0.24c-1.29,0.79-2.59,1.58-3.88,2.37
		c-0.05,0.03-0.1,0.07-0.17,0.03c-0.04-0.02-0.05-0.06-0.05-0.1C9.45,11.42,9.49,11.16,9.54,10.91z M17.44,11.43
		c-2.77,1.6-5.54,3.2-8.31,4.8c-0.16,0.09-0.33,0.19-0.49,0.28c-0.1,0.06-0.18,0.01-0.17-0.12c0.06-0.28,0.11-0.58,0.17-0.87
		c0.14-0.73,0.29-1.46,0.43-2.19c0.01-0.07,0.05-0.12,0.11-0.16c1.82-1.11,3.63-2.22,5.45-3.33c0.08-0.05,0.14-0.05,0.22-0.01
		c0.86,0.46,1.72,0.91,2.58,1.36C17.57,11.27,17.57,11.36,17.44,11.43z"/>
</g>
</svg>
