<?xml version="1.0" encoding="utf-8"?>
<!-- Generator: Adobe Illustrator 24.3.0, SVG Export Plug-In . SVG Version: 6.00 Build 0)  -->
<svg version="1.1" id="Layer_1" xmlns="http://www.w3.org/2000/svg" xmlns:xlink="http://www.w3.org/1999/xlink" x="0px" y="0px"
	 viewBox="0 0 24 24" style="enable-background:new 0 0 24 24;" xml:space="preserve">
<style type="text/css">
	.st0{fill:none;stroke:#000000;stroke-width:2;stroke-linecap:round;stroke-linejoin:round;stroke-miterlimit:10;}
	.st1{fill:#FFFFFF;}
	.st2{fill:#747373;}
	.st3{fill:#DD052B;}
	.st4{fill:#FFFFFF;stroke:#000000;stroke-miterlimit:10;stroke-dasharray:4;}
	.st5{fill:none;stroke:#000000;stroke-miterlimit:10;}
	.st6{fill:none;stroke:#000000;stroke-miterlimit:10;stroke-dasharray:4,4;}
	.st7{fill:#010101;}
	.st8{fill:#292A2A;}
	.st9{fill:#FFFF00;}
	.st10{fill:#FF0000;}
	.st11{fill:none;stroke:#000000;stroke-width:2;stroke-linejoin:round;stroke-miterlimit:10;}
	.st12{fill:#FFFFFF;stroke:#000000;stroke-width:1.9221;stroke-linecap:round;stroke-linejoin:round;stroke-miterlimit:10;}
	.st13{fill:#FFFFFF;stroke:#000000;stroke-width:2;stroke-linecap:round;stroke-linejoin:round;stroke-miterlimit:10;}
	.st14{fill:#E6E6E6;}
	.st15{fill:#637998;}
	.st16{fill-rule:evenodd;clip-rule:evenodd;}
	.st17{fill:#DF0F2D;}
	.st18{enable-background:new    ;}
	.st19{fill:#F98169;}
	.st20{fill:#6EA8CC;}
	.st21{fill:#BFBF4F;}
	.st22{fill:#F2B24C;}
	.st23{fill:#72C19F;}
	.st24{fill:#DF2D5D;}
	.st25{fill:none;stroke:#000000;stroke-width:1.2;stroke-miterlimit:10;}
	.st26{opacity:0.5;fill:#FFFFFF;}
	.st27{fill:none;stroke:#373737;stroke-width:2;stroke-linecap:round;stroke-linejoin:round;stroke-miterlimit:10;}
	.st28{fill:none;stroke:#373737;stroke-width:2.1565;stroke-linecap:round;stroke-linejoin:round;stroke-miterlimit:10;}
	.st29{fill:#373737;}
	.st30{fill:#333333;stroke:#373737;stroke-width:2;stroke-linecap:round;stroke-linejoin:round;stroke-miterlimit:10;}
	.st31{fill:#FFFFFF;stroke:#000000;stroke-width:2;stroke-miterlimit:10;}
	.st32{fill:none;stroke:#000000;stroke-width:2;stroke-miterlimit:10;}
	.st33{fill:#FFFFFF;stroke:#000000;stroke-width:2;stroke-linecap:round;stroke-miterlimit:10;}
	.st34{fill:none;stroke:#000000;stroke-width:2;stroke-linecap:round;stroke-miterlimit:10;}
	.st35{fill:#D9D9D9;}
	.st36{fill:none;stroke:#E6E6E6;stroke-width:3;stroke-miterlimit:10;}
	.st37{opacity:0.5;}
	.st38{fill:none;stroke:#FFFFFF;stroke-linecap:round;stroke-linejoin:round;stroke-miterlimit:10;}
	.st39{fill:none;stroke:#FFFFFF;stroke-miterlimit:10;}
	.st40{fill:none;stroke:#FFFFFF;stroke-linecap:round;stroke-miterlimit:10;}
	.st41{fill:none;stroke:#FFFFFF;stroke-width:1.5;stroke-linecap:round;stroke-linejoin:round;stroke-miterlimit:10;}
	.st42{fill:none;stroke:#FFFFFF;stroke-width:1.5;stroke-miterlimit:10;}
	.st43{fill:#FFFFFF;stroke:#FFFFFF;stroke-width:0.5;stroke-miterlimit:10;}
	.st44{fill:#364267;}
	.st45{fill:none;stroke:#FFFF00;stroke-width:2;stroke-linecap:round;stroke-miterlimit:10;}
</style>
<g>
	<path class="st44" d="M10.96,12.71h-1v-1c0-0.55-0.45-1-1-1s-1,0.45-1,1v1h-1c-0.55,0-1,0.45-1,1s0.45,1,1,1h1v1c0,0.55,0.45,1,1,1
		s1-0.45,1-1v-1h1c0.55,0,1-0.45,1-1S11.51,12.71,10.96,12.71z"/>
	<path class="st44" d="M15.45,11.21c-1.38,0-2.5,1.12-2.5,2.5c0,1.38,1.12,2.5,2.5,2.5s2.5-1.12,2.5-2.5
		C17.95,12.33,16.83,11.21,15.45,11.21z M15.45,14.21c-0.28,0-0.5-0.22-0.5-0.5s0.22-0.5,0.5-0.5s0.5,0.22,0.5,0.5
		S15.73,14.21,15.45,14.21z"/>
	<path class="st44" d="M23.7,17.4l-3.42-8.16c-0.74-2-2.66-3.24-4.7-3.24c-0.57,0-1.15,0.1-1.71,0.3C13.58,6.4,13.28,6.54,13,6.69V1
		c0-0.55-0.45-1-1-1s-1,0.45-1,1v5.69c-0.28-0.15-0.58-0.28-0.87-0.39C9.57,6.1,8.99,6,8.42,6c-2.04,0-3.96,1.24-4.7,3.24L0.3,17.4
		c-0.94,2.55,0.39,5.38,2.99,6.31C3.86,23.9,4.43,24,5,24c2.04,0,3.96-1.24,4.7-3.24l0.26-0.7h4.08l0.26,0.7
		c0.74,2,2.66,3.24,4.7,3.24c0.57,0,1.15-0.1,1.71-0.3C23.3,22.77,24.64,19.95,23.7,17.4z M21.73,20.28
		c-0.33,0.72-0.94,1.26-1.7,1.53C19.7,21.94,19.35,22,19,22c-1.26,0-2.4-0.78-2.82-1.93l-0.26-0.7l-0.48-1.31h-1.39H9.96H8.57
		l-0.48,1.31l-0.26,0.7C7.4,21.22,6.26,22,5,22c-0.35,0-0.7-0.06-1.04-0.18C3.21,21.55,2.6,21,2.27,20.28
		c-0.32-0.69-0.36-1.45-0.1-2.16l3.4-8.11l0.02-0.04L5.6,9.93C6.03,8.78,7.16,8,8.42,8c0.35,0,0.7,0.06,1.03,0.18
		c0.48,0.17,0.93,0.42,1.17,0.65L12,10.13l1.38-1.31c0.24-0.23,0.69-0.48,1.17-0.65C14.88,8.06,15.23,8,15.58,8
		c1.26,0,2.4,0.78,2.82,1.93l0.01,0.04l0.02,0.04l3.4,8.11C22.09,18.83,22.05,19.6,21.73,20.28z"/>
</g>
</svg>
