<?xml version="1.0" encoding="utf-8"?>
<!-- Generator: Adobe Illustrator 24.3.0, SVG Export Plug-In . SVG Version: 6.00 Build 0)  -->
<svg version="1.1" id="Layer_1" xmlns="http://www.w3.org/2000/svg" xmlns:xlink="http://www.w3.org/1999/xlink" x="0px" y="0px"
	 viewBox="0 0 24 24" style="enable-background:new 0 0 24 24;" xml:space="preserve">
<style type="text/css">
	.st0{fill:none;stroke:#000000;stroke-width:2;stroke-linecap:round;stroke-linejoin:round;stroke-miterlimit:10;}
	.st1{fill:#FFFFFF;}
	.st2{fill:#747373;}
	.st3{fill:#DD052B;}
	.st4{fill:#FFFFFF;stroke:#000000;stroke-miterlimit:10;stroke-dasharray:4;}
	.st5{fill:none;stroke:#000000;stroke-miterlimit:10;}
	.st6{fill:none;stroke:#000000;stroke-miterlimit:10;stroke-dasharray:4,4;}
	.st7{fill:#010101;}
	.st8{fill:#292A2A;}
	.st9{fill:#FFFF00;}
	.st10{fill:#FF0000;}
	.st11{fill:none;stroke:#000000;stroke-width:2;stroke-linejoin:round;stroke-miterlimit:10;}
	.st12{fill:#FFFFFF;stroke:#000000;stroke-width:1.9221;stroke-linecap:round;stroke-linejoin:round;stroke-miterlimit:10;}
	.st13{fill:#FFFFFF;stroke:#000000;stroke-width:2;stroke-linecap:round;stroke-linejoin:round;stroke-miterlimit:10;}
	.st14{fill:#E6E6E6;}
	.st15{fill:#637998;}
	.st16{fill-rule:evenodd;clip-rule:evenodd;}
	.st17{fill:#DF0F2D;}
	.st18{enable-background:new    ;}
	.st19{fill:#F98169;}
	.st20{fill:#6EA8CC;}
	.st21{fill:#BFBF4F;}
	.st22{fill:#F2B24C;}
	.st23{fill:#72C19F;}
	.st24{fill:#DF2D5D;}
	.st25{fill:none;stroke:#000000;stroke-width:1.2;stroke-miterlimit:10;}
	.st26{opacity:0.5;fill:#FFFFFF;}
	.st27{fill:none;stroke:#373737;stroke-width:2;stroke-linecap:round;stroke-linejoin:round;stroke-miterlimit:10;}
	.st28{fill:none;stroke:#373737;stroke-width:2.1565;stroke-linecap:round;stroke-linejoin:round;stroke-miterlimit:10;}
	.st29{fill:#373737;}
	.st30{fill:#333333;stroke:#373737;stroke-width:2;stroke-linecap:round;stroke-linejoin:round;stroke-miterlimit:10;}
	.st31{fill:#FFFFFF;stroke:#000000;stroke-width:2;stroke-miterlimit:10;}
	.st32{fill:none;stroke:#000000;stroke-width:2;stroke-miterlimit:10;}
	.st33{fill:#FFFFFF;stroke:#000000;stroke-width:2;stroke-linecap:round;stroke-miterlimit:10;}
	.st34{fill:none;stroke:#000000;stroke-width:2;stroke-linecap:round;stroke-miterlimit:10;}
	.st35{fill:#D9D9D9;}
	.st36{fill:none;stroke:#E6E6E6;stroke-width:3;stroke-miterlimit:10;}
	.st37{opacity:0.5;}
	.st38{fill:none;stroke:#FFFFFF;stroke-linecap:round;stroke-linejoin:round;stroke-miterlimit:10;}
	.st39{fill:none;stroke:#FFFFFF;stroke-miterlimit:10;}
	.st40{fill:none;stroke:#FFFFFF;stroke-linecap:round;stroke-miterlimit:10;}
	.st41{fill:none;stroke:#FFFFFF;stroke-width:1.5;stroke-linecap:round;stroke-linejoin:round;stroke-miterlimit:10;}
	.st42{fill:none;stroke:#FFFFFF;stroke-width:1.5;stroke-miterlimit:10;}
	.st43{fill:#FFFFFF;stroke:#FFFFFF;stroke-width:0.5;stroke-miterlimit:10;}
	.st44{fill:#364267;}
	.st45{fill:none;stroke:#FFFF00;stroke-width:2;stroke-linecap:round;stroke-miterlimit:10;}
</style>
<path class="st44" d="M20,6V1c0-0.58-0.47-1-1-1c-0.13,0-0.26,0.02-0.39,0.08L9,5H5c-2.76,0-5,2.24-5,5s2.24,5,5,5v6.5
	C5,22.88,6.12,24,7.5,24c1.38,0,2.5-1.12,2.5-2.5v-6.04l8.62,3.96c0.13,0.05,0.26,0.08,0.39,0.08c0.53,0,1-0.43,1-1V14
	c2.21,0,4-1.79,4-4C24,7.79,22.21,6,20,6z M8,21.5C8,21.78,7.78,22,7.5,22S7,21.78,7,21.5v-6.48h1V21.5z M9,13H5c-1.65,0-3-1.35-3-3
	s1.35-3,3-3h4V13z M18,16.94l-7-3.22v-7.5l7-3.58V16.94z M20,12V8c1.1,0,2,0.9,2,2C22,11.1,21.1,12,20,12z"/>
</svg>
