<svg xmlns="http://www.w3.org/2000/svg" width="20" height="20" viewBox="0 0 20 20">
  <defs>
    <style>
      .cls-1 {
        fill: #3eb2c0;
        fill-rule: evenodd;
      }
    </style>
  </defs>
  <path id="all" class="cls-1" d="M284,391.5a8.5,8.5,0,1,1-8.5,8.5,8.509,8.509,0,0,1,8.5-8.5m0-1.5a10,10,0,1,0,10,10,10,10,0,0,0-10-10h0Zm-1.536,5.615a1.341,1.341,0,0,1,.618-0.75,1.878,1.878,0,0,1,.93-0.246,1.711,1.711,0,0,1,.882.253,1.331,1.331,0,0,1,.594.743l3.132,8.712h-2.64l-0.468-1.488h-3.084l-0.456,1.488H279.38Zm0.588,5.2h1.836l-0.912-2.989Z" transform="translate(-274 -390)"/>
</svg>
