<svg xmlns="http://www.w3.org/2000/svg" width="19.688" height="20" viewBox="0 0 19.688 20">
  <defs>
    <style>
      .cls-1 {
        fill: #aaa;
        fill-rule: evenodd;
      }
    </style>
  </defs>
  <path class="cls-1" d="M638.72,508.644l-0.018-.039-1.649-.809-0.8-1.674-1.649-.811-0.8-1.674-1.65-.81-0.8-1.675L629.015,500,623.3,511.679l-2.185,2.217a3.448,3.448,0,0,0,0,4.819L621.4,519a3.324,3.324,0,0,0,4.745,0l2.185-2.217,11.4-5.748,0.107-.055Zm-12.707,8.84-0.682.693a2.18,2.18,0,0,1-3.117,0l-0.285-.289a2.265,2.265,0,0,1,0-3.164l0.682-.693Zm12.288-7.032-6.068,3.059-0.725-.736,5.247-3.826,1.084,0.532Zm-7.741,3.015,0.585,0.594-3.041,1.533-0.193-.2Zm-6.087-1.558,1.511-3.088,0.641,0.652-1.9,2.689Zm4.5-1.707-0.841-.854,3.78-5.342,1.033,0.507,0.532,1.117Zm-0.815.827-2.275,2.31L625.548,513l1.9-2.689Zm2.338-9,0.563,1.178-3.753,5.3-0.781-.793,3.014-6.161Zm-1.523,9.828,0.761,0.772-2.649,1.933-0.388-.395Zm0.815-.827,4.5-4.572,1.1,0.541,0.533,1.116-5.242,3.823Zm-2.613,5.276-0.347.352-3.4-3.453,0.347-.352Z" transform="translate(-620.156 -500)"/>
</svg>
