<?xml version="1.0" encoding="utf-8"?>
<!-- Generator: Adobe Illustrator 25.0.1, SVG Export Plug-In . SVG Version: 6.00 Build 0)  -->
<svg version="1.1" id="Layer_1" xmlns="http://www.w3.org/2000/svg" xmlns:xlink="http://www.w3.org/1999/xlink" x="0px" y="0px"
	 viewBox="0 0 20 20" style="enable-background:new 0 0 20 20;" xml:space="preserve">
<style type="text/css">
	.st0{fill:none;stroke:#000000;stroke-width:2;stroke-linecap:round;stroke-linejoin:round;stroke-miterlimit:10;}
	.st1{fill:#FFFFFF;}
	.st2{fill:#747373;}
	.st3{fill:#DD052B;}
	.st4{fill:#FFFFFF;stroke:#000000;stroke-miterlimit:10;stroke-dasharray:4;}
	.st5{fill:none;stroke:#000000;stroke-miterlimit:10;}
	.st6{fill:none;stroke:#000000;stroke-miterlimit:10;stroke-dasharray:4,4;}
	.st7{fill:#010101;}
	.st8{fill:#292A2A;}
	.st9{fill:#FFFF00;}
	.st10{fill:#FF0000;}
	.st11{fill:none;stroke:#000000;stroke-width:2;stroke-linejoin:round;stroke-miterlimit:10;}
	.st12{fill:#FFFFFF;stroke:#000000;stroke-width:1.9221;stroke-linecap:round;stroke-linejoin:round;stroke-miterlimit:10;}
	.st13{fill:#FFFFFF;stroke:#000000;stroke-width:2;stroke-linecap:round;stroke-linejoin:round;stroke-miterlimit:10;}
	.st14{fill:#E6E6E6;}
	.st15{fill:#637998;}
	.st16{fill-rule:evenodd;clip-rule:evenodd;}
	.st17{fill:#DF0F2D;}
	.st18{enable-background:new    ;}
	.st19{fill:#F98169;}
	.st20{fill:#6EA8CC;}
	.st21{fill:#BFBF4F;}
	.st22{fill:#F2B24C;}
	.st23{fill:#72C19F;}
	.st24{fill:#DF2D5D;}
	.st25{fill:none;stroke:#000000;stroke-width:1.2;stroke-miterlimit:10;}
	.st26{opacity:0.5;fill:#FFFFFF;}
	.st27{fill:none;stroke:#373737;stroke-width:2;stroke-linecap:round;stroke-linejoin:round;stroke-miterlimit:10;}
	.st28{fill:none;stroke:#373737;stroke-width:2.1565;stroke-linecap:round;stroke-linejoin:round;stroke-miterlimit:10;}
	.st29{fill:#373737;}
	.st30{fill:#333333;stroke:#373737;stroke-width:2;stroke-linecap:round;stroke-linejoin:round;stroke-miterlimit:10;}
	.st31{fill:#FFFFFF;stroke:#000000;stroke-width:2;stroke-miterlimit:10;}
	.st32{fill:none;stroke:#000000;stroke-width:2;stroke-miterlimit:10;}
	.st33{fill:#FFFFFF;stroke:#000000;stroke-width:2;stroke-linecap:round;stroke-miterlimit:10;}
	.st34{fill:none;stroke:#000000;stroke-width:2;stroke-linecap:round;stroke-miterlimit:10;}
	.st35{fill:#D9D9D9;}
	.st36{fill:none;stroke:#E6E6E6;stroke-width:3;stroke-miterlimit:10;}
	.st37{opacity:0.5;}
	.st38{fill:none;stroke:#FFFFFF;stroke-linecap:round;stroke-linejoin:round;stroke-miterlimit:10;}
	.st39{fill:none;stroke:#FFFFFF;stroke-miterlimit:10;}
	.st40{fill:none;stroke:#FFFFFF;stroke-linecap:round;stroke-miterlimit:10;}
	.st41{fill:none;stroke:#FFFFFF;stroke-width:1.5;stroke-linecap:round;stroke-linejoin:round;stroke-miterlimit:10;}
	.st42{fill:none;stroke:#FFFFFF;stroke-width:1.5;stroke-miterlimit:10;}
	.st43{fill:#FFFFFF;stroke:#FFFFFF;stroke-width:0.5;stroke-miterlimit:10;}
	.st44{fill:#364267;}
	.st45{fill:none;stroke:#FFFF00;stroke-width:2;stroke-linecap:round;stroke-miterlimit:10;}
</style>
<path d="M19.43,13.55h-4.75V9.32c1.48-0.24,2.63-1.4,2.88-2.88h1.87C19.75,6.45,20,6.2,20,5.88s-0.25-0.57-0.57-0.57h-1.87
	c-0.24-1.47-1.4-2.63-2.88-2.88V0.57c0-0.31-0.25-0.57-0.57-0.57c-0.31,0-0.57,0.25-0.57,0.57v1.87c-1.48,0.24-2.63,1.4-2.88,2.88
	H6.45V0.57C6.45,0.25,6.19,0,5.88,0S5.32,0.25,5.32,0.57v4.75H0.57C0.25,5.32,0,5.57,0,5.88s0.25,0.57,0.57,0.57h4.75v4.23
	c-1.48,0.24-2.63,1.4-2.88,2.88H0.57C0.25,13.55,0,13.8,0,14.12s0.25,0.57,0.57,0.57h1.87c0.24,1.47,1.4,2.63,2.88,2.88v1.87
	c0,0.31,0.25,0.57,0.57,0.57s0.57-0.25,0.57-0.57v-1.87c1.48-0.24,2.63-1.4,2.88-2.88h4.23v4.75c0,0.31,0.25,0.57,0.57,0.57
	c0.31,0,0.57-0.25,0.57-0.57v-4.75h4.75c0.31,0,0.57-0.25,0.57-0.57S19.75,13.55,19.43,13.55z M9.32,13.55
	c-0.24-1.47-1.4-2.63-2.88-2.88V6.45h4.23c0.24,1.47,1.4,2.63,2.88,2.88v4.23H9.32z"/>
</svg>
