<?xml version="1.0" encoding="utf-8"?>
<!-- Generator: Adobe Illustrator 24.3.0, SVG Export Plug-In . SVG Version: 6.00 Build 0)  -->
<svg version="1.1" id="Layer_1" xmlns="http://www.w3.org/2000/svg" xmlns:xlink="http://www.w3.org/1999/xlink" x="0px" y="0px"
	 viewBox="0 0 20 20" style="enable-background:new 0 0 20 20;" xml:space="preserve">
<style type="text/css">
	.st0{fill:none;stroke:#000000;stroke-width:2;stroke-linecap:round;stroke-linejoin:round;stroke-miterlimit:10;}
	.st1{fill:#FFFFFF;}
	.st2{fill:#747373;}
	.st3{fill:#DD052B;}
	.st4{fill:#FFFFFF;stroke:#000000;stroke-miterlimit:10;stroke-dasharray:4;}
	.st5{fill:none;stroke:#000000;stroke-miterlimit:10;}
	.st6{fill:none;stroke:#000000;stroke-miterlimit:10;stroke-dasharray:4,4;}
	.st7{fill:#010101;}
	.st8{fill:#292A2A;}
	.st9{fill:#FEFEFE;}
	.st10{fill:#FF0000;}
	.st11{fill:none;stroke:#000000;stroke-width:2;stroke-linejoin:round;stroke-miterlimit:10;}
	.st12{fill:#FFFFFF;stroke:#000000;stroke-width:1.9221;stroke-linecap:round;stroke-linejoin:round;stroke-miterlimit:10;}
	.st13{fill:#FFFFFF;stroke:#000000;stroke-width:2;stroke-linecap:round;stroke-linejoin:round;stroke-miterlimit:10;}
	.st14{fill:#E6E6E6;}
	.st15{fill-rule:evenodd;clip-rule:evenodd;}
	.st16{enable-background:new    ;}
</style>
<path d="M17.07,2.92c-3.9-3.9-10.25-3.9-14.15,0c-3.9,3.9-3.9,10.25,0,14.15C4.88,19.02,7.44,20,10,20s5.12-0.98,7.07-2.93
	C20.98,13.17,20.98,6.83,17.07,2.92z M2.07,10.63l0.02,0.45c0.01,0.16,0.08,0.31,0.2,0.42c0.12,0.11,0.28,0.17,0.44,0.16
	c0.15-0.01,0.3-0.07,0.4-0.18c0.12-0.12,0.18-0.28,0.18-0.46l-0.02-0.54c0.29-0.01,0.57,0.01,0.86,0.05l-0.15,0.55
	c-0.04,0.16-0.02,0.32,0.06,0.46c0.08,0.14,0.21,0.24,0.37,0.29c0.21,0.06,0.44,0,0.59-0.16c0.07-0.07,0.13-0.17,0.15-0.26
	l0.17-0.61c0.25,0.08,0.5,0.19,0.74,0.3l-0.37,0.37c-0.24,0.24-0.24,0.62,0,0.86c0.24,0.23,0.62,0.24,0.86,0l0.58-0.58
	c0.2,0.16,0.4,0.33,0.59,0.51c0.11,0.11,0.23,0.24,0.35,0.39L7.5,13.24c-0.12,0.11-0.18,0.27-0.18,0.43c0,0.16,0.06,0.32,0.18,0.43
	c0.23,0.23,0.63,0.23,0.86,0l0.41-0.41c0.15,0.28,0.28,0.57,0.39,0.88l-0.7,0.2c-0.32,0.09-0.51,0.43-0.42,0.75
	c0.09,0.32,0.43,0.51,0.75,0.42l0.66-0.19c0.04,0.28,0.06,0.55,0.06,0.83l-0.45-0.02c-0.01,0-0.02,0-0.03,0
	c-0.32,0-0.59,0.26-0.61,0.58C8.4,17.48,8.66,17.77,9,17.78l0.4,0.02c-0.06,0.32-0.15,0.63-0.26,0.94c-2.02-0.2-3.91-1.09-5.35-2.52
	c-1.43-1.44-2.33-3.34-2.52-5.35C1.52,10.77,1.79,10.69,2.07,10.63z M10.63,17.85l0.83,0.04c0.18,0,0.34-0.06,0.46-0.18
	c0.11-0.11,0.17-0.25,0.18-0.4c0.01-0.16-0.05-0.32-0.16-0.44c-0.11-0.12-0.26-0.19-0.42-0.2l-0.78-0.03c0-0.41-0.04-0.81-0.1-1.22
	l0.52-0.15c0.1-0.03,0.19-0.08,0.26-0.15c0.16-0.15,0.22-0.38,0.16-0.6c-0.09-0.32-0.43-0.51-0.75-0.42l-0.49,0.14
	c-0.17-0.5-0.4-0.99-0.68-1.44l0.43-0.43c0.24-0.24,0.24-0.62,0-0.86c-0.24-0.24-0.62-0.24-0.86,0l-0.29,0.29
	c-0.12-0.14-0.24-0.27-0.35-0.38c-0.18-0.18-0.37-0.35-0.58-0.52l0.28-0.28c0.24-0.24,0.24-0.62,0-0.86c-0.23-0.23-0.63-0.23-0.86,0
	l-0.45,0.45C6.55,9.98,6.11,9.79,5.65,9.64l0.16-0.59C5.86,8.9,5.84,8.73,5.76,8.59C5.68,8.45,5.55,8.35,5.4,8.3
	C5.08,8.22,4.74,8.4,4.65,8.72L4.47,9.35C4.06,9.29,3.65,9.27,3.23,9.27L3.2,8.57C3.18,8.24,2.88,7.99,2.57,7.99
	c-0.33,0.01-0.6,0.3-0.58,0.63L2.02,9.4C1.75,9.44,1.49,9.51,1.23,9.59c0.1-2.19,1-4.24,2.56-5.8c1.48-1.48,3.43-2.37,5.5-2.54
	C9.21,1.49,9.14,1.75,9.09,2L8.63,1.98c-0.01,0-0.02,0-0.03,0c-0.32,0-0.59,0.26-0.61,0.58C7.98,2.9,8.24,3.18,8.57,3.2l0.37,0.02
	c-0.02,0.45,0.01,0.9,0.08,1.35L8.72,4.65C8.57,4.69,8.44,4.79,8.36,4.94C8.28,5.08,8.26,5.24,8.3,5.4
	c0.04,0.16,0.14,0.29,0.29,0.37c0.14,0.08,0.31,0.1,0.46,0.06l0.24-0.07c0.17,0.52,0.39,1.01,0.66,1.48L9.76,7.42
	c-0.24,0.24-0.24,0.62,0,0.86c0.24,0.24,0.62,0.24,0.86,0l0.04-0.04c0.14,0.17,0.28,0.33,0.42,0.47c0.15,0.15,0.31,0.3,0.5,0.45
	l-0.07,0.07c-0.24,0.24-0.24,0.62,0,0.86c0.24,0.24,0.62,0.24,0.86,0l0.22-0.22c0.5,0.29,1.03,0.52,1.58,0.68l-0.08,0.28
	c-0.09,0.32,0.1,0.66,0.42,0.75c0.21,0.06,0.44,0,0.59-0.16c0.07-0.07,0.13-0.17,0.16-0.27l0.1-0.35c0.42,0.05,0.84,0.07,1.27,0.05
	l0.03,0.66c0.01,0.16,0.08,0.31,0.2,0.42c0.12,0.11,0.26,0.16,0.44,0.16c0.15-0.01,0.3-0.07,0.41-0.18
	c0.12-0.12,0.18-0.29,0.18-0.46l-0.03-0.77c0.31-0.07,0.62-0.15,0.92-0.26c-0.1,2.19-1,4.23-2.56,5.79
	c-1.56,1.56-3.61,2.46-5.8,2.56C10.5,18.47,10.57,18.17,10.63,17.85z M17.8,9.45L17.78,9c-0.02-0.33-0.29-0.58-0.61-0.58
	c-0.01,0-0.02,0-0.02,0c-0.33,0.01-0.6,0.3-0.58,0.63l0.02,0.58C16.3,9.64,16,9.64,15.71,9.61l0.23-0.83
	c0.09-0.32-0.1-0.66-0.42-0.75c-0.16-0.04-0.32-0.02-0.46,0.06c-0.14,0.08-0.24,0.21-0.29,0.37l-0.26,0.92
	c-0.35-0.11-0.69-0.24-1.02-0.41l0.61-0.61c0.11-0.11,0.18-0.27,0.18-0.43c0-0.16-0.06-0.32-0.18-0.43c-0.23-0.23-0.63-0.23-0.86,0
	l-0.79,0.79c-0.18-0.14-0.35-0.29-0.5-0.44c-0.14-0.14-0.28-0.3-0.42-0.47l0.82-0.82c0.12-0.12,0.18-0.27,0.18-0.43
	c0-0.16-0.06-0.32-0.18-0.43c-0.24-0.24-0.62-0.24-0.86,0l-0.64,0.64c-0.15-0.29-0.28-0.6-0.38-0.91l0.96-0.27
	c0.1-0.03,0.19-0.08,0.26-0.15c0.16-0.15,0.22-0.38,0.16-0.6c-0.09-0.32-0.42-0.51-0.75-0.42L10.2,4.23
	c-0.04-0.32-0.05-0.64-0.04-0.97l0.87,0.04c0.18,0,0.33-0.06,0.45-0.18c0.11-0.11,0.17-0.25,0.18-0.4c0.01-0.33-0.25-0.62-0.58-0.63
	l-0.76-0.03c0.07-0.28,0.15-0.55,0.26-0.82c2.13,0.14,4.12,1.04,5.64,2.55c1.43,1.44,2.33,3.33,2.53,5.35
	C18.44,9.27,18.12,9.37,17.8,9.45z"/>
</svg>
