<?xml version="1.0" encoding="utf-8"?>
<!-- Generator: Adobe Illustrator 24.3.0, SVG Export Plug-In . SVG Version: 6.00 Build 0)  -->
<svg version="1.1" id="Layer_1" xmlns="http://www.w3.org/2000/svg" xmlns:xlink="http://www.w3.org/1999/xlink" x="0px" y="0px"
	 viewBox="0 0 20 20" style="enable-background:new 0 0 20 20;" xml:space="preserve">
<style type="text/css">
	.st0{fill:none;stroke:#000000;stroke-width:2;stroke-linecap:round;stroke-linejoin:round;stroke-miterlimit:10;}
	.st1{fill:#FFFFFF;}
	.st2{fill:#747373;}
	.st3{fill:#DD052B;}
	.st4{fill:#FFFFFF;stroke:#000000;stroke-miterlimit:10;stroke-dasharray:4;}
	.st5{fill:none;stroke:#000000;stroke-miterlimit:10;}
	.st6{fill:none;stroke:#000000;stroke-miterlimit:10;stroke-dasharray:4,4;}
	.st7{fill:#010101;}
	.st8{fill:#292A2A;}
	.st9{fill:#FEFEFE;}
	.st10{fill:#FF0000;}
	.st11{fill:none;stroke:#000000;stroke-width:2;stroke-linejoin:round;stroke-miterlimit:10;}
	.st12{fill:#FFFFFF;stroke:#000000;stroke-width:1.9221;stroke-linecap:round;stroke-linejoin:round;stroke-miterlimit:10;}
	.st13{fill:#FFFFFF;stroke:#000000;stroke-width:2;stroke-linecap:round;stroke-linejoin:round;stroke-miterlimit:10;}
	.st14{fill:#E6E6E6;}
	.st15{fill-rule:evenodd;clip-rule:evenodd;}
	.st16{enable-background:new    ;}
</style>
<path d="M17.08,2.93c-3.9-3.9-10.25-3.9-14.15,0C1.04,4.82,0,7.33,0,10c0,2.67,1.04,5.18,2.93,7.07C4.88,19.03,7.44,20,10,20
	c2.56,0,5.12-0.98,7.07-2.93C20.97,13.17,20.98,6.83,17.08,2.93z M7.21,11.83l-3.88,3.88c-1.18-1.38-1.89-3.04-2.06-4.85
	C3.29,10.13,5.53,10.5,7.21,11.83z M10.64,8.4L9.92,9.11L4.21,3.4c1.44-1.26,3.25-2.02,5.16-2.16C8.51,3.67,8.99,6.42,10.64,8.4z
	 M11.5,7.54c-1.42-1.78-1.74-4.2-0.83-6.29c1.86,0.14,3.63,0.87,5.05,2.08L11.5,7.54z M12.35,8.4l4.23-4.23
	c1.27,1.44,2.04,3.25,2.18,5.16C16.61,10.27,14.14,9.91,12.35,8.4z M10.78,9.97l0.71-0.71c1.99,1.72,4.78,2.25,7.27,1.37
	c-0.14,1.91-0.89,3.72-2.16,5.16L10.78,9.97z M8.93,11.82l0.99-0.99l5.82,5.82c-1.49,1.28-3.36,2.03-5.33,2.12
	C11.15,16.35,10.59,13.74,8.93,11.82z M8.07,10.97c-1.34-1.11-3.01-1.7-4.71-1.7c-0.71,0-1.43,0.1-2.13,0.31
	c0.09-1.97,0.84-3.84,2.12-5.33l5.71,5.71L8.07,10.97z M8.07,12.68c1.42,1.69,1.82,3.97,1.07,6.06c-1.83-0.18-3.58-0.94-4.96-2.16
	L8.07,12.68z"/>
</svg>
