<svg xmlns="http://www.w3.org/2000/svg" width="19.906" height="19.906" viewBox="0 0 19.906 19.906">
  <defs>
    <style>
      .cls-1 {
        fill: #aaa;
        fill-rule: evenodd;
      }
    </style>
  </defs>
  <path class="cls-1" d="M879.5,502.25a1.273,1.273,0,0,0-1.8-1.8l-17.736,16.757,2.779,2.778L879.5,502.251h0Zm-16.78,16.142-1.161-1.161,0.728-.689,1.121,1.121Zm15.971-16.9-14.519,15.367-1.076-1.077,15.367-14.519A0.162,0.162,0,0,1,878.7,501.489Zm-3.106,9.733a4.262,4.262,0,1,0,4.262,4.261A4.267,4.267,0,0,0,875.589,511.222Zm0,7.412a3.151,3.151,0,1,1,3.15-3.151A3.154,3.154,0,0,1,875.589,518.634Zm0.354-5.559a0.556,0.556,0,1,0,0,1.111,0.944,0.944,0,0,1,.943.944,0.556,0.556,0,0,0,1.112,0A2.057,2.057,0,0,0,875.943,513.075Zm-10.906-9.1h6.825a0.6,0.6,0,1,0,0-1.192h-6.825A0.6,0.6,0,1,0,865.037,503.976Zm-4.472,2.244h0.714a0.6,0.6,0,1,0,0-1.193h-0.714A0.6,0.6,0,1,0,860.565,506.22Zm2.49,0h4.692a0.6,0.6,0,0,0,0-1.193h-4.692A0.6,0.6,0,0,0,863.055,506.22Z" transform="translate(-859.969 -500.094)"/>
</svg>
