<svg xmlns="http://www.w3.org/2000/svg" width="19.938" height="19.969" viewBox="0 0 19.938 19.969">
  <defs>
    <style>
      .cls-1 {
        fill: #aaa;
        fill-rule: evenodd;
      }
    </style>
  </defs>
  <path class="cls-1" d="M519.922,546.283h0a0.553,0.553,0,0,0-.526-0.375l-5.327.024,0.017-5.333a0.554,0.554,0,0,0-1-.336l-5.564,7.368a0.551,0.551,0,0,0-.1.453l0.461,2.094-0.048.042c-2.57,2.256-5.167,4.657-5.41,4.9a1.729,1.729,0,0,0-.3,2.039l-1.984,1.984a0.5,0.5,0,0,0,0,.709,0.5,0.5,0,0,0,.71,0l1.985-1.984a1.734,1.734,0,0,0,.824.2,1.686,1.686,0,0,0,1.2-.506c0.252-.253,2.67-2.87,4.9-5.41l0.056-.063,2.084,0.472a0.572,0.572,0,0,0,.455-0.1l7.37-5.564A0.552,0.552,0,0,0,519.922,546.283Zm-2.186.739-5.836,4.4-1.251-.283a32.594,32.594,0,0,0,3.244-4.106Zm-4.775-.923a32.259,32.259,0,0,0-4.122,3.25l-0.276-1.255,4.411-5.84Zm-1.036,1.969c-1.332,1.658-3.566,4.2-5.519,6.353l-0.837-.838C507.729,551.629,510.268,549.4,511.925,548.068Zm-7.1,6.19,0.9,0.906c-0.174.191-.339,0.372-0.492,0.538l-0.946-.953C504.457,554.6,504.636,554.431,504.826,554.258Zm-1.271,1.174,1,1.006c-0.18.192-.318,0.336-0.4,0.419l0,0a0.687,0.687,0,0,1-.5.208,0.725,0.725,0,0,1-.514-1.238C503.221,555.747,503.365,555.61,503.555,555.432Zm0.465-3.407a6.263,6.263,0,0,1,4.872-8.191l0.976-1.292a7.48,7.48,0,0,0-6.8,10.355C503.355,552.63,503.671,552.342,504.02,552.025Zm12.14-.927a6.266,6.266,0,0,1-8.2,4.874c-0.317.349-.6,0.664-0.872,0.956a7.482,7.482,0,0,0,10.362-6.8Zm-0.884-8.06a8.838,8.838,0,0,1,1.681,1.682l1.456-.006a10.008,10.008,0,0,0-3.133-3.132Zm3.435,6.134c0.027,0.28.043,0.562,0.043,0.849a8.76,8.76,0,0,1-12.582,7.9c-0.231.249-.4,0.424-0.452,0.481a2.945,2.945,0,0,1-.492.4A9.949,9.949,0,0,0,519.8,548.35Zm-17.129,5.1c0.056-.056.232-0.221,0.484-0.457a8.761,8.761,0,0,1,7.907-12.576c0.286,0,.568.016,0.846,0.042l0.823-1.089a9.973,9.973,0,0,0-10.451,14.569A2.986,2.986,0,0,1,501.582,554.273Z" transform="translate(-500 -540.031)"/>
</svg>
