<svg xmlns="http://www.w3.org/2000/svg" width="21.03" height="21" viewBox="0 0 21.03 21">
  <defs>
    <style>
      .cls-1 {
        fill: #aaa;
        fill-rule: evenodd;
      }
    </style>
  </defs>
  <path class="cls-1" d="M1120.78,508.606a8.722,8.722,0,0,0-.33-1.359,10.578,10.578,0,0,0-2.22-3.828,9.149,9.149,0,0,0-1-.962,10.711,10.711,0,0,0-3.24-1.885,12.346,12.346,0,0,0-1.33-.377,10.516,10.516,0,0,0-4.44,0,11.558,11.558,0,0,0-1.32.377,10.525,10.525,0,0,0-3.26,1.9,8.655,8.655,0,0,0-.98.942,10.578,10.578,0,0,0-2.22,3.828,10.038,10.038,0,0,0-.34,1.359,11.447,11.447,0,0,0-.16,1.865,11.1,11.1,0,0,0,.16,1.844,9.1,9.1,0,0,0,.34,1.369,10.441,10.441,0,0,0,2.22,3.829,8.744,8.744,0,0,0,.98.942,10.548,10.548,0,0,0,3.23,1.894,9.981,9.981,0,0,0,1.35.387,10.473,10.473,0,0,0,4.44,0,10.56,10.56,0,0,0,1.36-.387,10.719,10.719,0,0,0,3.21-1.874,9.149,9.149,0,0,0,1-.962,10.441,10.441,0,0,0,2.22-3.829,8.009,8.009,0,0,0,.33-1.369,10.117,10.117,0,0,0,.17-1.844A10.433,10.433,0,0,0,1120.78,508.606Zm-1.02,1.865a9.652,9.652,0,0,1-.22,2.023h-1.19l-0.59-1.012-0.58-1.021,0.58-1.012,0.59-1.012h1.19A9.749,9.749,0,0,1,1119.76,510.471Zm-18.63,0a9.121,9.121,0,0,1,.22-2.034h1.18l0.59,1.012,0.58,1.012-0.58,1.021-0.59,1.012h-1.18A9.03,9.03,0,0,1,1101.13,510.471Zm11.52-2.629,0.58-1.011,0.59-1.012h2.33l0.58,1.012,0.58,1.011-0.58,1.012-0.58,1.022h-2.33l-0.59-1.022Zm0.13,2.619-0.58,1.021-0.59,1.012h-2.33l-0.59-1.012-0.58-1.021,0.58-1.012,0.59-1.012h2.33l0.59,1.012Zm-0.58-4.225-0.59,1.011h-2.33l-0.59-1.011-0.58-1.012,0.58-1.012,0.59-1.011h2.33l0.59,1.011,0.58,1.012Zm-3.96,1.606-0.58,1.012-0.59,1.022h-2.34l-0.58-1.022-0.59-1.012,0.59-1.011,0.58-1.012h2.34l0.59,1.012Zm-4.09,4.235,0.58-1.021h2.34l0.59,1.021,0.58,1.012-0.58,1.012-0.59,1.011h-2.34l-0.58-1.011-0.59-1.012Zm4.54,2.619,0.59-1.012h2.33l0.59,1.012,0.58,1.012-0.58,1.011-0.59,1.012h-2.33l-0.59-1.012-0.58-1.011Zm3.96-1.607,0.58-1.012,0.59-1.021h2.33l0.58,1.021,0.58,1.012-0.58,1.012-0.58,1.011h-2.33l-0.59-1.011Zm6.55-5.842h-0.85l-1.17-2.023,0.41-.724A9.263,9.263,0,0,1,1119.2,507.247Zm-2.46-3.64-0.01.01-0.58,1.012h-2.33l-0.59-1.012-0.58-1.011,0.59-1.042A9.2,9.2,0,0,1,1116.74,503.607Zm-6.3-2.469a9.248,9.248,0,0,1,1.6.139l-0.43.734h-2.33l-0.43-.734A9.219,9.219,0,0,1,1110.44,501.138Zm-2.79.426,0.59,1.042-0.58,1.011-0.59,1.012h-2.34l-0.58-1.012v-0.01A9.2,9.2,0,0,1,1107.65,501.564Zm-4.36,2.946,0.41,0.714-0.58,1.012-0.59,1.011h-0.84A9.184,9.184,0,0,1,1103.29,504.51Zm-1.6,9.174h0.84l0.59,1.012,0.58,1.012-0.41.714A9.189,9.189,0,0,1,1101.69,513.684Zm2.46,3.64v-0.01l0.58-1.011h2.34l0.59,1.011,0.58,1.012-0.59,1.031A9.165,9.165,0,0,1,1104.15,517.324Zm6.29,2.47a9.319,9.319,0,0,1-1.59-.139l0.43-.734h2.33l0.43,0.734A9.348,9.348,0,0,1,1110.44,519.794Zm2.8-.437-0.59-1.031,0.58-1.012,0.59-1.011h2.33l0.58,1.011,0.01,0.01A9.165,9.165,0,0,1,1113.24,519.357Zm4.35-2.925-0.41-.724,0.58-1.012,0.59-1.012h0.85A9.268,9.268,0,0,1,1117.59,516.432Z" transform="translate(-1099.94 -499.969)"/>
</svg>
