<svg xmlns="http://www.w3.org/2000/svg" width="20" height="20" viewBox="0 0 20 20">
  <defs>
    <style>
      .cls-1 {
        fill: #aaa;
        fill-rule: evenodd;
      }
    </style>
  </defs>
  <path class="cls-1" d="M273.153,500.517c-0.073-.024-0.144-0.053-0.218-0.076-0.211-.064-0.424-0.114-0.638-0.164-0.11-.026-0.217-0.058-0.328-0.08-0.208-.042-0.418-0.068-0.629-0.1-0.117-.016-0.231-0.039-0.35-0.051-0.328-.032-0.658-0.05-0.987-0.05h0c-0.332,0-.664.018-1,0.051-0.109.01-.217,0.032-0.326,0.047-0.223.029-.446,0.059-0.667,0.1-0.1.02-.192,0.048-0.289,0.071-0.238.055-.475,0.114-0.71,0.187-0.057.018-.114,0.041-0.171,0.06-0.276.091-.55,0.193-0.819,0.309l-0.016.007-0.039.019a9.782,9.782,0,0,0-4.618,4.14h0l-0.021.037a9.962,9.962,0,0,0-1.2,3.412c-0.015.1-.03,0.2-0.042,0.294A10.014,10.014,0,0,0,260,510v0h0v0.01a10.281,10.281,0,0,0,.067,1.1c0.013,0.115.032,0.228,0.049,0.341,0.038,0.259.084,0.516,0.142,0.772,0.025,0.108.05,0.214,0.078,0.32,0.076,0.29.166,0.576,0.268,0.86,0.019,0.051.034,0.1,0.053,0.153a9.937,9.937,0,0,0,6.815,6.117c0.105,0.027.21,0.054,0.316,0.079,0.153,0.034.306,0.066,0.461,0.093s0.334,0.052.5,0.074c0.117,0.014.233,0.032,0.351,0.042,0.3,0.027.594,0.044,0.9,0.044h0a9.947,9.947,0,0,0,1.212-.081c0.088-.01.175-0.025,0.262-0.038a10.171,10.171,0,0,0,1.034-.208c0.049-.013.1-0.023,0.146-0.036a9.875,9.875,0,0,0,2.361-.992l0.01,0,0,0a10.035,10.035,0,0,0,2.048-1.567A9.928,9.928,0,0,0,279,514.35c0-.006.006-0.013,0.01-0.02A10.012,10.012,0,0,0,280,510v0c0-.331-0.018-0.662-0.05-0.991-0.011-.111-0.033-0.219-0.048-0.329-0.028-.218-0.056-0.435-0.1-0.651-0.021-.1-0.05-0.2-0.074-0.3-0.052-.224-0.1-0.446-0.172-0.666-0.019-.064-0.044-0.125-0.065-0.188-0.083-.254-0.173-0.507-0.277-0.756,0-.01-0.01-0.02-0.014-0.03a9.91,9.91,0,0,0-5.259-5.273c-0.021-.01-0.042-0.021-0.064-0.03C273.64,500.683,273.4,500.6,273.153,500.517Zm3.934,14.689a11.77,11.77,0,0,0-1.274-2.141,8.534,8.534,0,0,0-5.476-3.465,6.848,6.848,0,0,1-.455-2.441,7.607,7.607,0,0,1,.183-1.617,14.676,14.676,0,0,1,2.984.9,14.137,14.137,0,0,1,5.713,4.337A8.693,8.693,0,0,1,277.087,515.206Zm-0.86,1.016a8.786,8.786,0,0,1-10.058,1.694,15.252,15.252,0,0,0,5.938-2.771A15.543,15.543,0,0,0,274.5,512.9c0.2,0.215.386,0.442,0.569,0.685a10.836,10.836,0,0,1,1.368,2.4C276.366,516.067,276.3,516.148,276.227,516.222ZM261.2,510a8.749,8.749,0,0,1,3.88-7.3,14.484,14.484,0,0,0-.722,4.5,16.023,16.023,0,0,0,.854,5.178,11.488,11.488,0,0,1-2.467.285,10.527,10.527,0,0,1-1.153-.061A8.851,8.851,0,0,1,261.2,510Zm2.574,6.224a8.758,8.758,0,0,1-1.825-2.673c0.233,0.016.49,0.028,0.8,0.028a12.321,12.321,0,0,0,3.2-.414,8.014,8.014,0,0,0,4.222-2.671,7.126,7.126,0,0,1,3.684,1.771,14.732,14.732,0,0,1-2.319,2.179,14.143,14.143,0,0,1-6.583,2.76A9.072,9.072,0,0,1,263.774,516.221Zm9.625-10.616a15.573,15.573,0,0,0-3.1-.943,11.323,11.323,0,0,1,1.708-3.221,8.739,8.739,0,0,1,6.758,7.921A15.268,15.268,0,0,0,273.4,505.605Zm-4.426,1.554a7.751,7.751,0,0,0,.508,2.741,7.035,7.035,0,0,1-3.387,2.25,15.2,15.2,0,0,1-.827-4.945,13.461,13.461,0,0,1,1.029-5.182,8.832,8.832,0,0,1,4.717-.759A10.549,10.549,0,0,0,268.973,507.159Z" transform="translate(-260 -500)"/>
</svg>
