<svg xmlns="http://www.w3.org/2000/svg" width="19.656" height="19.969" viewBox="0 0 19.656 19.969">
  <defs>
    <style>
      .cls-1 {
        fill: #aaa;
        fill-rule: evenodd;
      }
    </style>
  </defs>
  <path class="cls-1" d="M869.774,464.859c0.853,0,3.634-.093,3.634-1.3v-1.6c0-1.2-2.781-1.3-3.634-1.3s-3.633.093-3.633,1.3v1.6C866.141,464.766,868.922,464.859,869.774,464.859Zm0-3.193a7.849,7.849,0,0,1,2.384.3,9.65,9.65,0,0,1-4.767,0A7.841,7.841,0,0,1,869.774,461.666Zm-2.651,1.258a10.539,10.539,0,0,0,5.3,0v0.518a8.6,8.6,0,0,1-5.3,0v-0.518Zm12.128,13.17a2.04,2.04,0,0,0-1.573-.717h-5.042l-1-1.454,7.77-11.715,0.036-.063a1.469,1.469,0,0,0-.622-1.938,1.4,1.4,0,0,0-1.1-.091,1.428,1.428,0,0,0-.815.69l-7.136,10.4-7.135-10.4a1.428,1.428,0,0,0-.815-0.69,1.4,1.4,0,0,0-1.1.091,1.468,1.468,0,0,0-.621,1.938l0.036,0.063,7.762,11.7-0.989,1.465h-5.042a2.04,2.04,0,0,0-1.573.717,1.572,1.572,0,0,0-.308,1.322,5.077,5.077,0,0,0,.35.908l0.014,0.031A2.657,2.657,0,0,0,862.63,480h3.739a2.481,2.481,0,0,0,2.1-1.293l1.307-1.972,1.308,1.972a2.48,2.48,0,0,0,2.1,1.293h3.738a2.657,2.657,0,0,0,2.277-1.644l0.014-.031a5.077,5.077,0,0,0,.35-0.908A1.572,1.572,0,0,0,879.251,476.094Zm-1.408-14.672,0.041-.07a0.318,0.318,0,0,1,.185-0.162,0.31,0.31,0,0,1,.244.02h0a0.326,0.326,0,0,1,.149.405l-7.5,11.315-0.5-.736ZM867.526,478.1l-0.036.063a1.371,1.371,0,0,1-1.121.7H862.63a1.564,1.564,0,0,1-1.268-.991l-0.014-.032a4.71,4.71,0,0,1-.27-0.663,0.426,0.426,0,0,1,.083-0.378,0.946,0.946,0,0,1,.71-0.3h5.139a0.927,0.927,0,0,0,.814-0.482l0.745-1.108,0.535,0.808Zm10.945-.919a4.71,4.71,0,0,1-.27.663l-0.014.032a1.564,1.564,0,0,1-1.269.991H873.18a1.371,1.371,0,0,1-1.121-.7l-0.036-.063-10.936-16.488a0.326,0.326,0,0,1,.149-0.405h0a0.31,0.31,0,0,1,.244-0.02,0.318,0.318,0,0,1,.185.162l0.041,0.07,10.019,14.6a0.927,0.927,0,0,0,.814.482h5.139a0.942,0.942,0,0,1,.709.3A0.424,0.424,0,0,1,878.471,477.184Z" transform="translate(-859.938 -460.031)"/>
</svg>
