<svg xmlns="http://www.w3.org/2000/svg" width="19.718" height="19.687" viewBox="0 0 19.718 19.687">
  <defs>
    <style>
      .cls-1 {
        fill: #aaa;
        fill-rule: evenodd;
      }
    </style>
  </defs>
  <path class="cls-1" d="M399.41,551.029c-0.312-.3-0.739-0.694-1.259-1.151l-0.163-.143c-0.424-.371-0.877-0.759-1.331-1.143l-0.3-.249q0.039-.106.087-0.231c0.171-.459.343-0.925,0.5-1.372,0.039-.111.039-0.111,0.079-0.222,0.228-.641.407-1.172,0.523-1.562a4.968,4.968,0,0,0,.14-0.556,0.978,0.978,0,0,0,.015-0.292,0.577,0.577,0,0,0-.8-0.492c-0.518.2-.539,0.205-0.748,0.279a9.459,9.459,0,0,1-4.134.655c-0.223-.693-0.458-1.4-0.694-2.078-0.088-.253-0.169-0.484-0.242-0.69L391,541.524a0.564,0.564,0,0,0-.19-0.257,4.7,4.7,0,0,0-1.192-.593c-2.239-.812-5.327-0.812-9.31.5a0.564,0.564,0,0,0-.365.7l2.371,7.761a0.448,0.448,0,0,0,.007.064l3.234,9.731a0.573,0.573,0,0,0,.714.363l1.551-.486a0.564,0.564,0,0,0,.371-0.711l-2.908-9a18.726,18.726,0,0,1,4.1-.164c0.046,0,.086.015,0.132,0.02l0.874,3.1a0.57,0.57,0,0,0,.56.412l0.353-.008c0.28-.007.591-0.016,0.926-0.028,0.958-.033,1.915-0.076,2.811-0.133,1.279-.081,2.322-0.181,3.056-0.3a4.273,4.273,0,0,0,1.023-.268A0.7,0.7,0,0,0,399.41,551.029Zm-12.95,7.522-2.876-8.65c0.176-.039.361-0.076,0.557-0.113l2.787,8.617Zm-2.118-9.95c-0.4.067-.763,0.14-1.092,0.213l-2.057-6.73c3.483-1.068,6.134-1.036,8.031-.348a4.518,4.518,0,0,1,.762.344c0.009,0.024.018,0.05,0.028,0.078,0.072,0.2.152,0.432,0.239,0.681,0.247,0.714.5,1.451,0.725,2.173,0.085,0.265.166,0.524,0.243,0.774a26.527,26.527,0,0,1,.719,2.736c0.017,0.1.031,0.184,0.043,0.265a11.487,11.487,0,0,0-2.507-.471A20.543,20.543,0,0,0,384.342,548.6Zm7.358,1.309L391.13,551l-0.384-1.356A8.506,8.506,0,0,1,391.7,549.91Zm6.2,1.47c-0.686.116-1.7,0.213-2.939,0.292-0.883.055-1.83,0.1-2.777,0.131l-0.294.009,0.987-1.88-0.008,0a0.929,0.929,0,0,0,.272-0.577,3.758,3.758,0,0,0-.081-1.03,26.142,26.142,0,0,0-.681-2.631,10.582,10.582,0,0,0,3.955-.657c-0.1.311-.23,0.685-0.38,1.109l-0.078.219c-0.159.441-.329,0.9-0.5,1.357-0.1.272-.181,0.481-0.226,0.6a0.562,0.562,0,0,0,.166.635c0.12,0.1.329,0.274,0.6,0.5,0.449,0.379.9,0.764,1.316,1.13l0.161,0.141c0.256,0.226.489,0.434,0.695,0.622C398.031,551.358,397.968,551.369,397.9,551.38Z" transform="translate(-379.938 -540.125)"/>
</svg>
