<svg xmlns="http://www.w3.org/2000/svg" width="20" height="20" viewBox="0 0 20 20">
  <defs>
    <style>
      .cls-1 {
        fill: #aaa;
        fill-rule: evenodd;
      }
    </style>
  </defs>
  <path class="cls-1" d="M520,510v-8a2,2,0,0,0-2-2h-8a10,10,0,0,0-10,10v8a2,2,0,0,0,2,2h8A10,10,0,0,0,520,510Zm-2-8.8a0.8,0.8,0,0,1,.8.8v4.687a6.807,6.807,0,0,1-5.487-5.487H518ZM501.2,510a8.81,8.81,0,0,1,8.8-8.8h2.1a8.323,8.323,0,0,0,1.827,4.026l-1.321,1.321-1.343-1.343a0.6,0.6,0,1,0-.848.848l1.343,1.343-0.888.888-1.343-1.343a0.6,0.6,0,1,0-.848.848l1.343,1.343-0.889.889-1.343-1.344a0.6,0.6,0,0,0-.848.848l1.343,1.344-0.888.888-1.343-1.344a0.6,0.6,0,0,0-.848.848l1.343,1.344-1.341,1.341A7.968,7.968,0,0,0,501.2,512.1V510Zm0.8,8.8a0.8,0.8,0,0,1-.8-0.8v-4.688a6.81,6.81,0,0,1,5.487,5.488H502Zm8,0h-2.1a8.326,8.326,0,0,0-1.827-4.027l1.321-1.321,1.344,1.344a0.6,0.6,0,1,0,.847-0.848l-1.343-1.344,0.888-.888,1.344,1.344a0.6,0.6,0,1,0,.847-0.848l-1.343-1.344,0.889-.888,1.343,1.343a0.6,0.6,0,1,0,.848-0.848l-1.343-1.343,0.888-.888,1.343,1.343a0.6,0.6,0,1,0,.848-0.848l-1.343-1.343,1.341-1.341A7.967,7.967,0,0,0,518.8,507.9V510A8.81,8.81,0,0,1,510,518.8Z" transform="translate(-500 -500)"/>
</svg>
