<svg xmlns="http://www.w3.org/2000/svg" width="20" height="20" viewBox="0 0 20 20">
  <defs>
    <style>
      .cls-1 {
        fill: #aaa;
        fill-rule: evenodd;
      }
    </style>
  </defs>
  <path class="cls-1" d="M750,500a10,10,0,1,0,10,10A10,10,0,0,0,750,500Zm0,13a6,6,0,1,1,6-6A6,6,0,0,1,750,513Zm1.813-5.829a1.705,1.705,0,0,0-.629-0.282,1.521,1.521,0,0,0,.519-0.294,1.674,1.674,0,0,0,.421-0.522,1.43,1.43,0,0,0,.163-0.67,1.692,1.692,0,0,0-.29-0.952,2.02,2.02,0,0,0-.813-0.694,2.865,2.865,0,0,0-2.372,0,2.06,2.06,0,0,0-.821.69,1.658,1.658,0,0,0-.294.956,1.387,1.387,0,0,0,.167.67,1.729,1.729,0,0,0,.425.522,1.507,1.507,0,0,0,.527.294,1.8,1.8,0,0,0-1.144.85,1.531,1.531,0,0,0-.2.784,1.694,1.694,0,0,0,.335,1.038,2.16,2.16,0,0,0,.911.693,3.487,3.487,0,0,0,2.573,0,2.163,2.163,0,0,0,.91-0.693,1.694,1.694,0,0,0,.335-1.038,1.531,1.531,0,0,0-.2-0.784A1.754,1.754,0,0,0,751.813,507.171Zm-2.458-2.262a1,1,0,0,1,.645-0.2,0.96,0.96,0,0,1,.645.217,0.7,0.7,0,0,1,0,1.082,0.968,0.968,0,0,1-.645.213,0.941,0.941,0,0,1-.637-0.225,0.715,0.715,0,0,1-.262-0.568A0.63,0.63,0,0,1,749.355,504.909Zm1.441,4.128a1.455,1.455,0,0,1-1.592,0,0.729,0.729,0,0,1-.307-0.6,0.757,0.757,0,0,1,.315-0.621,1.39,1.39,0,0,1,1.576,0,0.757,0.757,0,0,1,.315.621A0.732,0.732,0,0,1,750.8,509.037Z" transform="translate(-740 -500)"/>
</svg>
