<?xml version="1.0" encoding="utf-8"?>
<!-- Generator: Adobe Illustrator 24.3.0, SVG Export Plug-In . SVG Version: 6.00 Build 0)  -->
<svg version="1.1" id="Layer_1" xmlns="http://www.w3.org/2000/svg" xmlns:xlink="http://www.w3.org/1999/xlink" x="0px" y="0px"
	 viewBox="0 0 20 20" style="enable-background:new 0 0 20 20;" xml:space="preserve">
<style type="text/css">
	.st0{fill:none;stroke:#000000;stroke-width:2;stroke-linecap:round;stroke-linejoin:round;stroke-miterlimit:10;}
	.st1{fill:#FFFFFF;}
	.st2{fill:#747373;}
	.st3{fill:#DD052B;}
	.st4{fill:#FFFFFF;stroke:#000000;stroke-miterlimit:10;stroke-dasharray:4;}
	.st5{fill:none;stroke:#000000;stroke-miterlimit:10;}
	.st6{fill:none;stroke:#000000;stroke-miterlimit:10;stroke-dasharray:4,4;}
	.st7{fill:#010101;}
	.st8{fill:#292A2A;}
	.st9{fill:#FEFEFE;}
	.st10{fill:#FF0000;}
	.st11{fill:none;stroke:#000000;stroke-width:2;stroke-linejoin:round;stroke-miterlimit:10;}
	.st12{fill:#FFFFFF;stroke:#000000;stroke-width:1.9221;stroke-linecap:round;stroke-linejoin:round;stroke-miterlimit:10;}
	.st13{fill:#FFFFFF;stroke:#000000;stroke-width:2;stroke-linecap:round;stroke-linejoin:round;stroke-miterlimit:10;}
	.st14{fill:#E6E6E6;}
	.st15{fill-rule:evenodd;clip-rule:evenodd;}
	.st16{enable-background:new    ;}
</style>
<path d="M18.94,5.53c-0.02-0.08-0.06-0.15-0.09-0.18C17.12,2.05,13.73,0,10,0S2.88,2.05,1.17,5.32C1.12,5.38,1.08,5.45,1.08,5.49
	C0.36,6.9,0,8.42,0,10c0,4.15,2.61,7.91,6.45,9.34c0.08,0.05,0.17,0.09,0.22,0.09C7.74,19.81,8.86,20,10,20s2.26-0.19,3.28-0.56
	c0.1-0.01,0.19-0.05,0.22-0.07c1.59-0.59,3.01-1.6,4.12-2.9c0.11-0.07,0.2-0.18,0.25-0.3C19.26,14.39,20,12.26,20,10
	C20,8.41,19.64,6.9,18.94,5.53z M18.72,8.99l-0.69-0.7l0.35-0.92C18.54,7.9,18.66,8.44,18.72,8.99z M14.97,9.48l2.08-0.46l1.7,1.73
	c-0.14,1.69-0.77,3.28-1.8,4.62l-2.37,0.14l-1.14-1.29L14.97,9.48z M8.8,1.3c0.75-0.1,1.5-0.11,2.25-0.02L9.96,2L8.8,1.3z
	 M7.57,13.7L6.1,9.18l3.84-2.79l3.84,2.79l-1.47,4.52H7.57z M7.13,1.7l2.26,1.37l0,2.22L5.15,8.37L3.13,7.93L2.31,5.76
	C3.37,3.85,5.07,2.42,7.13,1.7z M2.86,9.11l2.09,0.46l1.51,4.64L5.5,15.5l-2.46-0.15c-1.02-1.32-1.64-2.89-1.79-4.56L2.86,9.11z
	 M7.45,14.91h4.97l1.18,1.33l-0.85,2.09c-0.89,0.3-1.82,0.45-2.76,0.45c-0.94,0-1.87-0.15-2.76-0.45l-0.82-2.03L7.45,14.91z
	 M14.65,8.31L10.6,5.36V3.04l2.12-1.39c2.1,0.68,3.9,2.17,4.98,4.11L16.91,7.8L14.65,8.31z M1.97,8.29l-0.7,0.73
	C1.34,8.46,1.45,7.9,1.62,7.37L1.97,8.29z M5.23,16.7c0.02,0.02,0.04,0.04,0.06,0.06l0.35,0.86c-0.49-0.28-0.95-0.61-1.38-0.98
	L5.23,16.7z M15.73,16.65c-0.42,0.37-0.88,0.69-1.37,0.97l0.37-0.91L15.73,16.65z"/>
</svg>
