<svg xmlns="http://www.w3.org/2000/svg" width="20.001" height="19.906" viewBox="0 0 20.001 19.906">
  <defs>
    <style>
      .cls-1 {
        fill: #aaa;
        fill-rule: evenodd;
      }
    </style>
  </defs>
  <path class="cls-1" d="M998.43,501.857a6.244,6.244,0,0,0-4.865-1.759,7.714,7.714,0,0,0-4.916,2.22,7.368,7.368,0,0,0-2.114,6.68l-1.214,2.911-4.491,4.462a2.125,2.125,0,0,0,1.5,3.621h0a2.114,2.114,0,0,0,1.5-.629l4.484-4.459,2.931-1.209a7.4,7.4,0,0,0,6.717-2.1C1000.79,508.778,1001,504.412,998.43,501.857Zm-1.483,8.722a6.17,6.17,0,0,1-4.3,1.833,4.888,4.888,0,0,1-4.661-3.491,6.38,6.38,0,0,1,1.674-5.593,6.2,6.2,0,0,1,4.321-1.779,4.813,4.813,0,0,1,3.432,1.32C999.42,504.865,999.211,508.324,996.947,510.579Zm-7.627,2.359-1.237.514-1.309-1.3,0.514-1.238a6.121,6.121,0,0,0,.892,1.137A5.94,5.94,0,0,0,989.32,512.938ZM986.9,514.3l-4.075,4.053h0a0.732,0.732,0,0,1-.972,0,0.677,0.677,0,0,1-.2-0.488,0.668,0.668,0,0,1,.2-0.479l4.076-4.054Zm10.7,0.46a2.617,2.617,0,1,0,2.634,2.616A2.627,2.627,0,0,0,997.6,514.758Zm1.029,2.617a1.029,1.029,0,1,1-1.029-1.027A1.027,1.027,0,0,1,998.625,517.375Z" transform="translate(-980.219 -500.094)"/>
</svg>
