<svg xmlns="http://www.w3.org/2000/svg" width="20.121" height="20" viewBox="0 0 20.121 20">
  <defs>
    <style>
      .cls-1 {
        fill: #aaa;
        fill-rule: evenodd;
      }
    </style>
  </defs>
  <path class="cls-1" d="M997.448,463.244c-0.1-.106-0.186-0.217-0.289-0.319-0.185-.184-0.381-0.351-0.576-0.517a10.081,10.081,0,0,0-13.077,0c-0.2.166-.391,0.333-0.577,0.518-0.1.1-.192,0.212-0.289,0.317a9.92,9.92,0,0,0,0,13.514c0.1,0.105.188,0.216,0.291,0.318,0.185,0.184.38,0.351,0.575,0.517A10.056,10.056,0,0,0,990.04,480h0a10.064,10.064,0,0,0,6.539-2.408c0.2-.167.391-0.334,0.577-0.518,0.1-.1.191-0.213,0.288-0.318A9.958,9.958,0,0,0,997.448,463.244ZM981.189,470a8.7,8.7,0,0,1,2.316-5.921,8.764,8.764,0,0,1,0,11.842A8.707,8.707,0,0,1,981.189,470Zm8.851,8.8a8.811,8.811,0,0,1-5.67-2.044,9.96,9.96,0,0,0,0-13.512,8.9,8.9,0,0,1,11.346,0,9.92,9.92,0,0,0,0,13.514A8.819,8.819,0,0,1,990.04,478.8Zm6.541-2.879a8.728,8.728,0,0,1,0-11.842A8.765,8.765,0,0,1,996.581,475.921Z" transform="translate(-979.969 -460)"/>
</svg>
