<svg xmlns="http://www.w3.org/2000/svg" width="19.687" height="20" viewBox="0 0 19.687 20">
  <defs>
    <style>
      .cls-1 {
        fill: #aaa;
        fill-rule: evenodd;
      }
    </style>
  </defs>
  <path class="cls-1" d="M278.736,545.916l-4.649-4.967a2.924,2.924,0,0,0-2.149-.949h0a2.926,2.926,0,0,0-2.15.949l-0.173.185a2.462,2.462,0,0,0-1.437-.468h0a3.125,3.125,0,0,0-2.277,1.121c-0.061.089-1.507,2.177-1.967,3.057-0.993,1.9-.749,3.154-0.238,3.954l-3.621,3.868a0.572,0.572,0,0,0,0,.78l5.971,6.378a0.552,0.552,0,0,0,.808,0l1.135-1.213h0l1.671-1.787h0l0.831-.888a2.87,2.87,0,0,0,1.445.4,2.927,2.927,0,0,0,2.149-.948l4.649-4.966A3.35,3.35,0,0,0,278.736,545.916Zm-17.49,7.14,3.178-3.4,5.2,5.557-0.369.394-1.871-2a1.719,1.719,0,0,0-2.479,0,1.906,1.906,0,0,0,0,2.566l1.91,2.04-0.368.394Zm6.339,4.342-1.87-2a0.757,0.757,0,0,1,0-1.007,0.579,0.579,0,0,1,.865,0l1.909,2.04Zm10.342-7.753-4.648,4.966a1.851,1.851,0,0,1-2.683,0l-5.768-6.163c-0.647-.692-0.618-1.725.088-3.074,0.424-.809,1.851-2.872,1.844-2.872h0a2,2,0,0,1,1.417-.705h0a1.338,1.338,0,0,1,.652.175l-1.972,2.107a0.57,0.57,0,0,0,.02.8,0.551,0.551,0,0,0,.788-0.02l2.931-3.131a1.808,1.808,0,0,1,2.683,0l4.649,4.967A2.19,2.19,0,0,1,277.927,549.645Z" transform="translate(-259.938 -540)"/>
</svg>
