<svg xmlns="http://www.w3.org/2000/svg" width="20.313" height="19.719" viewBox="0 0 20.313 19.719">
  <defs>
    <style>
      .cls-1 {
        fill: #aaa;
        fill-rule: evenodd;
      }
    </style>
  </defs>
  <path class="cls-1" d="M756.307,462.1a10.309,10.309,0,0,0-7.555-1.8,10.143,10.143,0,0,0-6.65,3.918,9.581,9.581,0,0,0-1.849,7.335,9.757,9.757,0,0,0,4.035,6.458,10.294,10.294,0,0,0,6.007,1.91H750.3a10.3,10.3,0,0,0,8.189-4.032A9.693,9.693,0,0,0,756.307,462.1Zm3.055,7.958a8.488,8.488,0,0,1-.158,1.63,16.12,16.12,0,0,0-1.619-5.2,2.064,2.064,0,0,1,1.176.426A8.484,8.484,0,0,1,759.362,470.061Zm-9.517-8.784c0.151-.008.3-0.012,0.459-0.012h0.006a9.221,9.221,0,0,1,4.156.989,8.276,8.276,0,0,0-7.113,6.374,18.651,18.651,0,0,1-2.925-1.418A9.971,9.971,0,0,1,749.845,461.277ZM746.68,462a10.523,10.523,0,0,0-3.225,4.6c-0.494-.333-0.868-0.616-1.086-0.788A8.983,8.983,0,0,1,746.68,462Zm2.965,15.367h0.046a7.935,7.935,0,0,0,1.725-.189,3.192,3.192,0,0,1-1.573,1.668,9.118,9.118,0,0,1-6.446-3.111A15.117,15.117,0,0,0,749.645,477.367Zm2.093-1.4c-3.828,1.267-8.908-1.723-9.619-2.159a8.609,8.609,0,0,1-.871-3.572c1.516,1.228,5.045,3.667,9.152,3.667a10.363,10.363,0,0,0,1.356-.089A8.814,8.814,0,0,1,751.738,475.966Zm-10.406-7.1a8.479,8.479,0,0,1,.549-2.062,18.04,18.04,0,0,0,9.144,3.762,16.954,16.954,0,0,1,.561,2.176C746.7,473.4,742.292,469.73,741.332,468.871Zm10.735,1.293a18.073,18.073,0,0,1,1.272-1.354,9.016,9.016,0,0,1,.885,9.175,9.184,9.184,0,0,1-2.479.758C753.955,476.157,752.461,471.3,752.067,470.164Zm5.016-4.729c-2.532.267-5.106,3.116-5.9,4.067a13.187,13.187,0,0,1-2.79-.52,7.05,7.05,0,0,1,7.2-5.712c0.153,0,.309,0,0.468.01a8.911,8.911,0,0,1,1.952,2.178A3.41,3.41,0,0,0,757.083,465.435Zm-2.932,2.635a7.471,7.471,0,0,1,2.3-1.387c0.725,1.394,2.686,5.686,1.11,8.648a9.012,9.012,0,0,1-1.8,1.749A10.341,10.341,0,0,0,754.151,468.07Z" transform="translate(-740.125 -460.219)"/>
</svg>
