<?xml version="1.0" encoding="utf-8"?>
<!-- Generator: Adobe Illustrator 24.3.0, SVG Export Plug-In . SVG Version: 6.00 Build 0)  -->
<svg version="1.1" id="Layer_1" xmlns="http://www.w3.org/2000/svg" xmlns:xlink="http://www.w3.org/1999/xlink" x="0px" y="0px"
	 viewBox="0 0 30 20" style="enable-background:new 0 0 30 20;" xml:space="preserve">
<style type="text/css">
	.st0{fill:none;stroke:#000000;stroke-width:2;stroke-linecap:round;stroke-linejoin:round;stroke-miterlimit:10;}
	.st1{fill:#FFFFFF;}
	.st2{fill:#747373;}
	.st3{fill:#DD052B;}
	.st4{fill:#FFFFFF;stroke:#000000;stroke-miterlimit:10;stroke-dasharray:4;}
	.st5{fill:none;stroke:#000000;stroke-miterlimit:10;}
	.st6{fill:none;stroke:#000000;stroke-miterlimit:10;stroke-dasharray:4,4;}
	.st7{fill:#010101;}
	.st8{fill:#292A2A;}
	.st9{fill:#FEFEFE;}
	.st10{fill:#FF0000;}
	.st11{fill:none;stroke:#000000;stroke-width:2;stroke-linejoin:round;stroke-miterlimit:10;}
	.st12{fill:#FFFFFF;stroke:#000000;stroke-width:1.9221;stroke-linecap:round;stroke-linejoin:round;stroke-miterlimit:10;}
	.st13{fill:#FFFFFF;stroke:#000000;stroke-width:2;stroke-linecap:round;stroke-linejoin:round;stroke-miterlimit:10;}
	.st14{fill:#E6E6E6;}
	.st15{fill-rule:evenodd;clip-rule:evenodd;}
	.st16{enable-background:new    ;}
</style>
<g>
	<path d="M29.3,8.47L29.3,8.47l-3.8,0c-0.39,0-0.7,0.32-0.7,0.71c0,0.39,0.31,0.71,0.7,0.71c0,0,0,0,0,0l3.8,0
		c0.39,0,0.7-0.32,0.7-0.71C30,8.79,29.69,8.47,29.3,8.47z"/>
	<path d="M27.67,14.79l-3.12-1.68c-0.34-0.18-0.76-0.05-0.94,0.29c-0.18,0.35-0.05,0.77,0.29,0.96l3.12,1.68
		c0.1,0.06,0.22,0.08,0.33,0.08c0.25,0,0.49-0.14,0.62-0.38C28.14,15.4,28.01,14.97,27.67,14.79z"/>
	<path d="M24.3,5.36c0.13,0,0.26-0.04,0.38-0.11l2.96-1.95c0.32-0.21,0.42-0.65,0.21-0.98c-0.21-0.33-0.64-0.42-0.96-0.21
		l-2.96,1.95c-0.32,0.21-0.42,0.65-0.21,0.98C23.85,5.25,24.07,5.36,24.3,5.36z"/>
	<path d="M19.66,5.13V1.26c0-0.72-0.5-1.26-1.17-1.26c-0.18,0-0.36,0.04-0.54,0.12l-5.44,2.35C12.2,2.6,11.6,2.72,11.26,2.72H4.55
		c-0.82,0-1.49,0.68-1.49,1.52v0.49H0.7C0.31,4.74,0,5.05,0,5.45v7.17c0,0.39,0.31,0.71,0.7,0.71h2.36v0.43
		c0,0.39,0.15,0.74,0.39,1.01c0.01,0.07,0.01,0.14,0.04,0.2l2.05,4.61C5.64,19.84,5.89,20,6.16,20h3.18c0,0,0,0,0,0
		c0.39,0,0.7-0.32,0.7-0.71c0-0.13-0.03-0.25-0.09-0.36l-1.63-3.66h2.94c0.34,0,0.95,0.12,1.26,0.26l5.44,2.31
		c0.18,0.07,0.36,0.11,0.53,0.11c0.67,0,1.17-0.54,1.17-1.26v-4.39c1.57-0.31,2.69-1.75,2.69-3.59C22.36,6.88,21.24,5.44,19.66,5.13
		z M4.45,4.24c0-0.05,0.05-0.1,0.1-0.1h6.05v9.72H4.55c-0.05,0-0.1-0.05-0.1-0.1V4.24z M1.39,11.91V6.15h1.66v5.76H1.39z
		 M6.61,18.58l-1.42-3.2h1.65l1.42,3.2H6.61z M18.27,16.44l-5.21-2.22c-0.3-0.13-0.69-0.23-1.08-0.29V4.07
		c0.39-0.07,0.78-0.17,1.08-0.3l5.2-2.25L18.27,16.44z M19.66,11.05V6.38c0.9,0.29,1.5,1.16,1.5,2.33
		C21.16,9.89,20.57,10.77,19.66,11.05z"/>
</g>
</svg>
