<svg xmlns="http://www.w3.org/2000/svg" width="13.968" height="14" viewBox="0 0 13.968 14">
  <defs>
    <style>
      .cls-1 {
        fill: #888;
        fill-rule: evenodd;
      }
    </style>
  </defs>
  <path class="cls-1" d="M506.625,384.224L504,381.144a1.01,1.01,0,0,0-1.433-.108,1.035,1.035,0,0,0-.106,1.449l1.179,1.382h-8.671v-7.841a1.017,1.017,0,1,0-2.033,0v8.868a1.022,1.022,0,0,0,1.016,1.026h9.679l-1.185,1.38a1.035,1.035,0,0,0,.1,1.449,1.01,1.01,0,0,0,1.434-.1l2.643-3.08A1.035,1.035,0,0,0,506.625,384.224Z" transform="translate(-492.938 -375)"/>
</svg>
