<svg xmlns="http://www.w3.org/2000/svg" width="7.565" height="15" viewBox="0 0 7.25 14.375">
  <defs>
    <style>
      .cls-1 {
        fill: #888;
        fill-rule: evenodd;
      }
    </style>
  </defs>
  <path id="파일첨부아이콘_copy_3" data-name="파일첨부아이콘 copy 3" class="cls-1" d="M288.222,407.47a1.941,1.941,0,0,1-1.916-1.962v-4.655a0.491,0.491,0,1,1,.981,0v4.655a0.935,0.935,0,1,0,1.869,0v-5.99a0.491,0.491,0,1,1,.981,0v5.99A1.941,1.941,0,0,1,288.222,407.47Zm-3.293.336a0.5,0.5,0,0,1-.49-0.5v-7.585a2.85,2.85,0,1,1,5.7,0,0.491,0.491,0,1,1-.981,0,1.869,1.869,0,1,0-3.737,0V407.3A0.5,0.5,0,0,1,284.929,407.806Zm2.358,3.3a0.494,0.494,0,0,1-.189-0.04,0.512,0.512,0,0,1-.157-0.108,0.517,0.517,0,0,1-.144-0.355,0.491,0.491,0,0,1,.039-0.194,0.521,0.521,0,0,1,.1-0.161,0.528,0.528,0,0,1,.157-0.113,0.5,0.5,0,0,1,.68.468,0.514,0.514,0,0,1-.04.194,0.4,0.4,0,0,1-.1.161A0.485,0.485,0,0,1,287.287,411.1Zm0.771,0.1a3.668,3.668,0,0,1-3.619-3.707v-5.605a0.49,0.49,0,1,1,.98,0v5.605a2.639,2.639,0,1,0,5.277,0v-5.605a0.491,0.491,0,1,1,.981,0v5.605A3.668,3.668,0,0,1,288.058,411.2Z" transform="translate(-284.438 -396.813)"/>
</svg>
