<svg xmlns="http://www.w3.org/2000/svg" width="10.281" height="14.875" viewBox="0 0 10.281 14.875">
  <defs>
    <style>
      .cls-1 {
        fill: #888;
        fill-rule: evenodd;
      }
    </style>
  </defs>
  <path class="cls-1" d="M283.248,384.178a3.277,3.277,0,0,1-.357-4.614l2.772-3.3a3.24,3.24,0,1,1,4.963,4.165l-0.414.494-0.912-.764,0.415-.5a2.05,2.05,0,1,0-3.141-2.635l-2.772,3.3a2.051,2.051,0,1,0,3.141,2.636l0.55-.656,0.912,0.765-0.55.655A3.277,3.277,0,0,1,283.248,384.178Zm-0.985,5.01a3.277,3.277,0,0,1-.358-4.614l0.464-.553,0.912,0.765-0.464.553a2.05,2.05,0,1,0,3.14,2.635l2.772-3.3a2.05,2.05,0,1,0-3.14-2.635l-0.5.6-0.911-.765,0.5-.6a3.24,3.24,0,1,1,4.963,4.165l-2.773,3.3A3.276,3.276,0,0,1,282.263,389.188Z" transform="translate(-281.125 -375.063)"/>
</svg>
