<svg id="관리자아이콘_copy" data-name="관리자아이콘 copy" xmlns="http://www.w3.org/2000/svg" width="14" height="14" viewBox="0 0 14 14">
  <defs>
    <style>
      .cls-1 {
        fill: #3eb2c0;
      }

      .cls-2 {
        fill: #fff;
        fill-rule: evenodd;
      }
    </style>
  </defs>
  <circle class="cls-1" cx="7" cy="7" r="7"/>
  <path class="cls-2" d="M985.482,339.743q-1.221-.645-2.443-1.291a0.191,0.191,0,0,0-.212.01q-2.575,1.575-5.154,3.145a0.2,0.2,0,0,0-.106.147q-0.2,1.036-.408,2.07c-0.055.279-.11,0.558-0.163,0.824-0.006.12,0.065,0.167,0.161,0.114,0.157-.086.311-0.178,0.466-0.267l7.859-4.539C985.605,339.885,985.605,339.808,985.482,339.743Zm-7.4.5L981.756,338c0.132-.081.13-0.156,0-0.227l-2.9-1.527c-0.146-.076-0.189-0.056-0.22.1l-0.615,3.116c-0.047.238-.093,0.477-0.139,0.713a0.094,0.094,0,0,0,.048.1A0.137,0.137,0,0,0,978.084,340.244Z" transform="translate(-974 -334)"/>
</svg>
