<svg xmlns="http://www.w3.org/2000/svg" width="9.063" height="18" viewBox="0 0 9.063 18">
  <defs>
    <style>
      .cls-1 {
        fill: #3eb2c0;
        fill-rule: evenodd;
      }
    </style>
  </defs>
  <path id="파일첨부아이콘" class="cls-1" d="M813.54,426.13v-9.482a3.56,3.56,0,0,1,7.115-.25l0.008,0.163v7.324a2.4,2.4,0,1,1-4.789,0v-5.818a0.613,0.613,0,1,1,1.226,0v5.818a1.169,1.169,0,1,0,2.337,0v-7.237a2.336,2.336,0,1,0-4.671,0v9.718a3.3,3.3,0,1,0,6.6,0V419.36a0.613,0.613,0,1,1,1.226,0v7.006a4.525,4.525,0,1,1-9.048,0V426.13Z" transform="translate(-813.531 -413)"/>
</svg>
