<svg xmlns="http://www.w3.org/2000/svg" width="30" height="30" viewBox="0 0 30 30">
  <defs>
    <style>
      .cls-1 {
        fill: #f98169;
        fill-rule: evenodd;
      }
    </style>
  </defs>
  <path id="스_copy" data-name="스 copy" class="cls-1" d="M1021,615a15,15,0,1,0,15,15A15,15,0,0,0,1021,615Zm7.2,22.3h-14.4v-3h14.4v3Zm-0.8-5.42a9.056,9.056,0,0,1-3.65-1.06,8.356,8.356,0,0,1-2.75-2.38,8.356,8.356,0,0,1-2.75,2.38,9.056,9.056,0,0,1-3.65,1.06l-0.8-2.8a5.174,5.174,0,0,0,2.7-.94,5.835,5.835,0,0,0,1.87-2.25,7.775,7.775,0,0,0,.75-3.191h3.76a7.775,7.775,0,0,0,.75,3.191,5.835,5.835,0,0,0,1.87,2.25,5.174,5.174,0,0,0,2.7.94Z" transform="translate(-1006 -615)"/>
</svg>
