<svg xmlns="http://www.w3.org/2000/svg" width="30" height="30" viewBox="0 0 30 30">
  <defs>
    <style>
      .cls-1 {
        fill: #f2b24c;
        fill-rule: evenodd;
      }
    </style>
  </defs>
  <path id="ì´" class="cls-1" d="M1021,885a15,15,0,1,0,15,15A15,15,0,0,0,1021,885Zm1.94,17.439a4.66,4.66,0,0,1-1.14,3.4,5.388,5.388,0,0,1-6.68,0,4.66,4.66,0,0,1-1.14-3.4V897.12a4.656,4.656,0,0,1,1.14-3.4,5.388,5.388,0,0,1,6.68,0,4.656,4.656,0,0,1,1.14,3.4v5.319Zm5.08,5.161h-3.76V892.4h3.76v15.2Zm-9.56-12.04a0.664,0.664,0,0,0-.74.76v6.92a0.74,0.74,0,1,0,1.48,0v-6.92A0.664,0.664,0,0,0,1018.46,895.56Z" transform="translate(-1006 -885)"/>
</svg>
