<?xml version="1.0" encoding="utf-8"?>
<!-- Generator: Adobe Illustrator 24.3.0, SVG Export Plug-In . SVG Version: 6.00 Build 0)  -->
<svg version="1.1" id="Layer_1" xmlns="http://www.w3.org/2000/svg" xmlns:xlink="http://www.w3.org/1999/xlink" x="0px" y="0px"
	 viewBox="0 0 23.62 9.71" style="enable-background:new 0 0 23.62 9.71;" xml:space="preserve">
<style type="text/css">
	.st0{fill:none;stroke:#000000;stroke-width:2;stroke-linecap:round;stroke-linejoin:round;stroke-miterlimit:10;}
	.st1{fill:#FFFFFF;}
	.st2{fill:#747373;}
	.st3{fill:#DD052B;}
	.st4{fill:#FFFFFF;stroke:#000000;stroke-miterlimit:10;stroke-dasharray:4;}
	.st5{fill:none;stroke:#000000;stroke-miterlimit:10;}
	.st6{fill:none;stroke:#000000;stroke-miterlimit:10;stroke-dasharray:4,4;}
	.st7{fill:#010101;}
	.st8{fill:#292A2A;}
	.st9{fill:#FEFEFE;}
	.st10{fill:#FF0000;}
	.st11{fill:none;stroke:#000000;stroke-width:2;stroke-linejoin:round;stroke-miterlimit:10;}
	.st12{fill:#FFFFFF;stroke:#000000;stroke-width:1.9221;stroke-linecap:round;stroke-linejoin:round;stroke-miterlimit:10;}
	.st13{fill:#FFFFFF;stroke:#000000;stroke-width:2;stroke-linecap:round;stroke-linejoin:round;stroke-miterlimit:10;}
	.st14{fill:#E6E6E6;}
	.st15{fill-rule:evenodd;clip-rule:evenodd;}
	.st16{enable-background:new    ;}
</style>
<g class="st16">
	<path d="M3.08,1C3.2,0.66,3.41,0.41,3.7,0.25C3.99,0.08,4.3,0,4.63,0c0.3,0,0.6,0.08,0.88,0.25C5.8,0.42,6,0.67,6.11,1l3.13,8.71
		H6.6L6.13,8.22H3.05L2.59,9.71H0L3.08,1z M3.67,6.19h1.84L4.6,3.2L3.67,6.19z"/>
	<path d="M11.76,9.71c-0.36,0-0.66-0.03-0.9-0.1c-0.24-0.07-0.43-0.18-0.58-0.33c-0.14-0.15-0.25-0.35-0.31-0.59
		C9.92,8.45,9.89,8.16,9.89,7.81V1.22c0-0.2,0.03-0.38,0.1-0.53c0.07-0.15,0.16-0.28,0.28-0.38c0.12-0.1,0.25-0.18,0.4-0.23
		C10.82,0.03,10.98,0,11.14,0s0.32,0.03,0.47,0.08c0.15,0.05,0.29,0.13,0.4,0.23c0.12,0.1,0.21,0.23,0.28,0.38
		c0.07,0.15,0.1,0.33,0.1,0.53v6.04c0,0.14,0.02,0.24,0.07,0.28c0.05,0.04,0.14,0.07,0.28,0.07h2.66c0.18,0,0.33,0.03,0.45,0.09
		c0.12,0.06,0.22,0.14,0.3,0.24c0.08,0.1,0.13,0.21,0.17,0.34c0.04,0.12,0.05,0.25,0.05,0.37s-0.02,0.24-0.05,0.37
		c-0.04,0.13-0.09,0.24-0.17,0.35c-0.08,0.1-0.18,0.19-0.3,0.25c-0.12,0.06-0.27,0.1-0.44,0.1H11.76z"/>
	<path d="M19.01,9.71c-0.36,0-0.66-0.03-0.9-0.1c-0.24-0.07-0.43-0.18-0.58-0.33c-0.14-0.15-0.25-0.35-0.31-0.59
		c-0.06-0.24-0.09-0.53-0.09-0.88V1.22c0-0.2,0.03-0.38,0.1-0.53c0.07-0.15,0.16-0.28,0.28-0.38c0.12-0.1,0.25-0.18,0.4-0.23
		C18.07,0.03,18.22,0,18.38,0s0.32,0.03,0.47,0.08c0.15,0.05,0.29,0.13,0.4,0.23c0.12,0.1,0.21,0.23,0.28,0.38
		c0.07,0.15,0.1,0.33,0.1,0.53v6.04c0,0.14,0.02,0.24,0.07,0.28c0.05,0.04,0.14,0.07,0.28,0.07h2.66c0.18,0,0.33,0.03,0.45,0.09
		c0.12,0.06,0.22,0.14,0.3,0.24c0.08,0.1,0.13,0.21,0.17,0.34c0.04,0.12,0.05,0.25,0.05,0.37s-0.02,0.24-0.05,0.37
		c-0.04,0.13-0.09,0.24-0.17,0.35c-0.08,0.1-0.18,0.19-0.3,0.25c-0.12,0.06-0.27,0.1-0.44,0.1H19.01z"/>
</g>
</svg>
