<?xml version="1.0" encoding="utf-8"?>
<!-- Generator: Adobe Illustrator 25.2.1, SVG Export Plug-In . SVG Version: 6.00 Build 0)  -->
<svg version="1.1" id="Layer_1" xmlns="http://www.w3.org/2000/svg" xmlns:xlink="http://www.w3.org/1999/xlink" x="0px" y="0px"
	 viewBox="0 0 38 32" style="enable-background:new 0 0 38 32;" xml:space="preserve">
<style type="text/css">
	.st0{fill:none;stroke:#000000;stroke-width:2;stroke-linecap:round;stroke-linejoin:round;stroke-miterlimit:10;}
	.st1{fill:#FFFFFF;}
	.st2{fill:none;stroke:#000000;stroke-width:2;stroke-miterlimit:10;}
	.st3{fill:none;stroke:#000000;stroke-width:2;stroke-miterlimit:10;stroke-dasharray:7.9304,7.9304;}
	.st4{fill:none;stroke:#000000;stroke-miterlimit:10;}
	.st5{fill:none;stroke:#000000;stroke-miterlimit:10;stroke-dasharray:4,4;}
	.st6{fill:#FFFF00;}
	.st7{fill:#FF0000;}
	.st8{fill:#010101;}
	.st9{fill:none;stroke:#000000;stroke-width:2;stroke-linejoin:round;stroke-miterlimit:10;}
	.st10{fill:#FFFFFF;stroke:#000000;stroke-width:1.9221;stroke-linecap:round;stroke-linejoin:round;stroke-miterlimit:10;}
	.st11{fill:#FFFFFF;stroke:#000000;stroke-width:2;stroke-linecap:round;stroke-linejoin:round;stroke-miterlimit:10;}
	.st12{fill:#E6E6E6;}
	.st13{fill:#637998;}
	.st14{fill-rule:evenodd;clip-rule:evenodd;fill:#E6E6E6;}
	.st15{fill:#DF0F2D;}
	.st16{enable-background:new    ;}
	.st17{fill:#F98169;}
	.st18{fill:#6EA8CC;}
	.st19{fill:#BFBF4F;}
	.st20{fill:#F2B24C;}
	.st21{fill:#72C19F;}
	.st22{fill:#DF2D5D;}
	.st23{fill:none;stroke:#000000;stroke-width:1.2;stroke-miterlimit:10;}
	.st24{opacity:0.5;fill:#FFFFFF;}
	.st25{fill:none;stroke:#373737;stroke-width:2;stroke-linecap:round;stroke-linejoin:round;stroke-miterlimit:10;}
	.st26{fill:none;stroke:#373737;stroke-width:2.1565;stroke-linecap:round;stroke-linejoin:round;stroke-miterlimit:10;}
	.st27{fill:#373737;}
	.st28{fill:#333333;stroke:#373737;stroke-width:2;stroke-linecap:round;stroke-linejoin:round;stroke-miterlimit:10;}
	.st29{fill:#FFFFFF;stroke:#000000;stroke-width:2;stroke-miterlimit:10;}
	.st30{fill:#FFFFFF;stroke:#000000;stroke-width:2;stroke-linecap:round;stroke-miterlimit:10;}
	.st31{fill:none;stroke:#000000;stroke-width:2;stroke-linecap:round;stroke-miterlimit:10;}
	.st32{opacity:0.5;}
	.st33{fill:none;stroke:#FFFFFF;stroke-linecap:round;stroke-linejoin:round;stroke-miterlimit:10;}
	.st34{fill:none;stroke:#FFFFFF;stroke-miterlimit:10;}
	.st35{fill:none;stroke:#FFFFFF;stroke-linecap:round;stroke-miterlimit:10;}
	.st36{fill:none;stroke:#FFFFFF;stroke-width:1.5;stroke-linecap:round;stroke-linejoin:round;stroke-miterlimit:10;}
	.st37{fill:none;stroke:#FFFFFF;stroke-width:1.5;stroke-miterlimit:10;}
	.st38{fill:#FFFFFF;stroke:#FFFFFF;stroke-width:0.5;stroke-miterlimit:10;}
	.st39{fill:#364267;}
	.st40{fill-rule:evenodd;clip-rule:evenodd;fill:#364267;}
	.st41{fill-rule:evenodd;clip-rule:evenodd;fill:#DF2F5D;}
	.st42{fill:none;stroke:#CCCCCC;stroke-width:1.5;stroke-linecap:round;stroke-linejoin:round;stroke-miterlimit:10;}
	.st43{fill:none;stroke:#CCCCCC;stroke-width:1.5;stroke-miterlimit:10;}
	.st44{fill:#CCCCCC;}
	.st45{fill:none;stroke:#000000;stroke-width:1.5;stroke-linecap:round;stroke-linejoin:round;stroke-miterlimit:10;}
</style>
<g>
	<path d="M24.69,13.48c-0.8-0.4-1.68-0.4-2.48-0.04l-1.16,0.52c-0.2,0.08-0.44,0.12-0.64,0.04c-0.2-0.08-0.36-0.24-0.48-0.44
		c-0.08-0.2-0.12-0.44-0.04-0.64c0.08-0.2,0.24-0.36,0.44-0.48l1.16-0.52c0.2-0.08,0.44-0.12,0.64-0.04
		c0.12,0.04,0.24,0.12,0.32,0.2c0.12,0.12,0.32,0.16,0.48,0.08l1.04-0.48c0.24-0.12,0.32-0.4,0.16-0.6
		c-0.32-0.48-0.8-0.84-1.32-1.04c-0.6-0.2-1.24-0.2-1.8-0.04l-0.52-1.12c-0.08-0.2-0.36-0.28-0.56-0.2l-1,0.52
		c-0.2,0.08-0.28,0.36-0.2,0.56l0.52,1.12c-0.52,0.32-0.92,0.8-1.16,1.4c-0.24,0.72-0.24,1.44,0.08,2.12
		c0.32,0.68,0.88,1.2,1.56,1.44s1.44,0.24,2.12-0.08l1.16-0.52c0.2-0.08,0.44-0.12,0.64-0.04c0.2,0.08,0.36,0.24,0.48,0.44
		c0.08,0.2,0.12,0.44,0.04,0.64s-0.24,0.36-0.44,0.48l-1.12,0.52c-0.2,0.08-0.44,0.12-0.64,0.04c-0.12-0.04-0.24-0.12-0.32-0.2
		c-0.12-0.12-0.32-0.16-0.48-0.08l-1.04,0.48c-0.24,0.12-0.32,0.4-0.16,0.6c0.32,0.48,0.8,0.84,1.32,1.04
		c0.32,0.12,0.64,0.16,0.96,0.16c0.28,0,0.56-0.08,0.84-0.16l0.52,1.12c0.08,0.2,0.36,0.28,0.56,0.2l1.04-0.48
		c0.2-0.08,0.28-0.36,0.2-0.56l-0.52-1.12c0.52-0.32,0.92-0.8,1.16-1.4c0.28-0.84,0.2-1.72-0.28-2.49
		C25.49,14.04,25.13,13.72,24.69,13.48z"/>
	<path d="M37.92,17.37l-2.52-5.41c-0.24-0.48-0.8-0.72-1.28-0.48C33,12,31.65,11.52,31.09,10.36c-0.52-1.12-0.04-2.49,1.12-3.05
		c0.24-0.12,0.4-0.32,0.52-0.56c0.08-0.24,0.08-0.52-0.04-0.76l-2.52-5.41c-0.24-0.48-0.8-0.72-1.28-0.48l-16.83,7.9
		c-1,0.48-1.76,1.28-2.12,2.32c-0.04,0.12-0.04,0.24-0.08,0.36c-0.12-0.04-0.2-0.12-0.32-0.16c-1.04-0.36-2.16-0.32-3.12,0.12
		l-5.84,2.73c-0.24,0.12-0.4,0.32-0.52,0.56c-0.08,0.24-0.08,0.52,0.04,0.76l7.8,16.75C8.05,31.8,8.41,32,8.77,32
		c0.12,0,0.28-0.04,0.4-0.08l5.84-2.77c1-0.48,1.76-1.28,2.12-2.32c0.04-0.12,0.04-0.2,0.08-0.32c0.52,0.24,1.12,0.4,1.72,0.4
		c0.56,0,1.16-0.12,1.72-0.4l16.79-7.86C37.92,18.41,38.12,17.85,37.92,17.37z M15.29,26.15c-0.2,0.52-0.6,0.96-1.12,1.2l-4.92,2.28
		L2.29,14.72l4.92-2.32c0.52-0.24,1.12-0.28,1.64-0.08c0.52,0.2,0.96,0.6,1.2,1.12l5.16,11.06C15.45,25.03,15.49,25.63,15.29,26.15z
		 M19.85,24.75c-1.08,0.52-2.36,0.04-2.84-1.04l-5.2-11.06c-0.24-0.52-0.28-1.12-0.08-1.64c0.2-0.52,0.6-0.96,1.12-1.2l15.91-7.42
		l1.76,3.73c-1.52,1.2-2.04,3.29-1.2,5.13c0.84,1.8,2.8,2.77,4.68,2.36l1.76,3.73L19.85,24.75z"/>
</g>
</svg>
