<?xml version="1.0" encoding="utf-8"?>
<!-- Generator: Adobe Illustrator 25.2.1, SVG Export Plug-In . SVG Version: 6.00 Build 0)  -->
<svg version="1.1" id="Layer_1" xmlns="http://www.w3.org/2000/svg" xmlns:xlink="http://www.w3.org/1999/xlink" x="0px" y="0px"
	 viewBox="0 0 34 30" style="enable-background:new 0 0 34 30;" xml:space="preserve">
<style type="text/css">
	.st0{fill:none;stroke:#000000;stroke-width:2;stroke-linecap:round;stroke-linejoin:round;stroke-miterlimit:10;}
	.st1{fill:#FFFFFF;}
	.st2{fill:none;stroke:#000000;stroke-width:2;stroke-miterlimit:10;}
	.st3{fill:none;stroke:#000000;stroke-width:2;stroke-miterlimit:10;stroke-dasharray:7.9304,7.9304;}
	.st4{fill:none;stroke:#000000;stroke-miterlimit:10;}
	.st5{fill:none;stroke:#000000;stroke-miterlimit:10;stroke-dasharray:4,4;}
	.st6{fill:#FFFF00;}
	.st7{fill:#FF0000;}
	.st8{fill:#010101;}
	.st9{fill:none;stroke:#000000;stroke-width:2;stroke-linejoin:round;stroke-miterlimit:10;}
	.st10{fill:#FFFFFF;stroke:#000000;stroke-width:1.9221;stroke-linecap:round;stroke-linejoin:round;stroke-miterlimit:10;}
	.st11{fill:#FFFFFF;stroke:#000000;stroke-width:2;stroke-linecap:round;stroke-linejoin:round;stroke-miterlimit:10;}
	.st12{fill:#E6E6E6;}
	.st13{fill:#637998;}
	.st14{fill-rule:evenodd;clip-rule:evenodd;fill:#E6E6E6;}
	.st15{fill:#DF0F2D;}
	.st16{enable-background:new    ;}
	.st17{fill:#F98169;}
	.st18{fill:#6EA8CC;}
	.st19{fill:#BFBF4F;}
	.st20{fill:#F2B24C;}
	.st21{fill:#72C19F;}
	.st22{fill:#DF2D5D;}
	.st23{fill:none;stroke:#000000;stroke-width:1.2;stroke-miterlimit:10;}
	.st24{opacity:0.5;fill:#FFFFFF;}
	.st25{fill:none;stroke:#373737;stroke-width:2;stroke-linecap:round;stroke-linejoin:round;stroke-miterlimit:10;}
	.st26{fill:none;stroke:#373737;stroke-width:2.1565;stroke-linecap:round;stroke-linejoin:round;stroke-miterlimit:10;}
	.st27{fill:#373737;}
	.st28{fill:#333333;stroke:#373737;stroke-width:2;stroke-linecap:round;stroke-linejoin:round;stroke-miterlimit:10;}
	.st29{fill:#FFFFFF;stroke:#000000;stroke-width:2;stroke-miterlimit:10;}
	.st30{fill:#FFFFFF;stroke:#000000;stroke-width:2;stroke-linecap:round;stroke-miterlimit:10;}
	.st31{fill:none;stroke:#000000;stroke-width:2;stroke-linecap:round;stroke-miterlimit:10;}
	.st32{opacity:0.5;}
	.st33{fill:none;stroke:#FFFFFF;stroke-linecap:round;stroke-linejoin:round;stroke-miterlimit:10;}
	.st34{fill:none;stroke:#FFFFFF;stroke-miterlimit:10;}
	.st35{fill:none;stroke:#FFFFFF;stroke-linecap:round;stroke-miterlimit:10;}
	.st36{fill:none;stroke:#FFFFFF;stroke-width:1.5;stroke-linecap:round;stroke-linejoin:round;stroke-miterlimit:10;}
	.st37{fill:none;stroke:#FFFFFF;stroke-width:1.5;stroke-miterlimit:10;}
	.st38{fill:#FFFFFF;stroke:#FFFFFF;stroke-width:0.5;stroke-miterlimit:10;}
	.st39{fill:#364267;}
	.st40{fill-rule:evenodd;clip-rule:evenodd;fill:#364267;}
	.st41{fill-rule:evenodd;clip-rule:evenodd;fill:#DF2F5D;}
	.st42{fill:none;stroke:#CCCCCC;stroke-width:1.5;stroke-linecap:round;stroke-linejoin:round;stroke-miterlimit:10;}
	.st43{fill:none;stroke:#CCCCCC;stroke-width:1.5;stroke-miterlimit:10;}
	.st44{fill:#CCCCCC;}
	.st45{fill:none;stroke:#000000;stroke-width:1.5;stroke-linecap:round;stroke-linejoin:round;stroke-miterlimit:10;}
</style>
<g>
	<path d="M22.97,8.15c-0.06,0-0.12,0-0.19,0V6.13c0-1.77-1.27-3.38-3.59-4.52C17.11,0.57,14.34,0,11.4,0C8.46,0,5.69,0.57,3.6,1.6
		C1.28,2.75,0,4.36,0,6.13v17.76c0,1.76,1.27,3.35,3.59,4.5C5.69,29.43,8.46,30,11.4,30c2.43,0,4.74-0.39,6.69-1.14
		c1.53,0.75,3.18,1.14,4.89,1.14C29.05,30,34,25.1,34,19.07S29.05,8.15,22.97,8.15z M4.42,3.31C6.24,2.4,8.79,1.89,11.4,1.89
		c2.61,0,5.16,0.52,6.98,1.42c1.61,0.8,2.54,1.83,2.54,2.77c-0.27,1.22-1.1,2.16-2.54,2.85c-1.83,0.91-4.37,1.42-6.98,1.42
		c-2.61,0-5.16-0.52-6.98-1.42C3.54,8.49,2.05,7.52,1.88,6.13C1.88,5.14,2.8,4.11,4.42,3.31z M11.95,19.24
		c-0.18,0-0.37,0.01-0.55,0.01c-2.6,0-5.14-0.52-6.97-1.42c-1.61-0.8-2.54-1.83-2.54-2.82V14c0.48,0.39,1.05,0.75,1.7,1.07
		c2.1,1.04,4.88,1.62,7.81,1.62c0.28,0,0.55-0.01,0.82-0.02c-0.18,0.79-0.27,1.6-0.27,2.41C11.95,19.13,11.95,19.19,11.95,19.24z
		 M3.59,19.51c2.1,1.04,4.88,1.62,7.81,1.62c0.25,0,0.5-0.01,0.75-0.02c0.17,0.87,0.44,1.71,0.81,2.51
		c-0.53,0.04-1.04,0.07-1.55,0.07c-2.6,0-5.14-0.52-6.97-1.42c-1.61-0.8-2.54-1.83-2.54-2.82v-1C2.37,18.83,2.94,19.19,3.59,19.51z
		 M12.85,14.74c-0.41,0.03-0.93,0.07-1.45,0.07c-2.6,0-5.14-0.52-6.97-1.42c-1.61-0.8-2.54-1.83-2.54-2.82v-1
		c0.49,0.4,1.06,0.76,1.71,1.08c2.09,1.03,4.86,1.6,7.8,1.6c1.06,0,2.12-0.08,3.16-0.24C13.86,12.83,13.29,13.74,12.85,14.74z
		 M11.4,28.12c-2.6,0-5.14-0.52-6.97-1.42c-1.61-0.8-2.54-1.83-2.54-2.82v-1c0.48,0.39,1.05,0.75,1.7,1.07
		c2.1,1.04,4.88,1.62,7.81,1.62c0.9,0,1.78-0.05,2.6-0.15c0.57,0.79,1.25,1.51,2.03,2.13C14.59,27.92,13,28.12,11.4,28.12z
		 M22.97,28.12c-5.04,0-9.14-4.06-9.14-9.05s4.1-9.05,9.14-9.05c5.04,0,9.14,4.06,9.14,9.05S28.01,28.12,22.97,28.12z"/>
	<path d="M23.26,20.3h1.87v0.84c-0.37,0.21-0.69,0.37-0.98,0.46c-0.28,0.09-0.58,0.13-0.9,0.13c-0.66,0-1.17-0.21-1.54-0.62
		c-0.37-0.41-0.55-1.1-0.55-2.07c0-0.91,0.18-1.57,0.55-1.99c0.36-0.42,0.85-0.63,1.47-0.63c0.41,0,0.75,0.09,1.02,0.27
		s0.45,0.44,0.57,0.77l2.7-0.47c-0.16-0.58-0.41-1.05-0.74-1.43c-0.33-0.38-0.74-0.65-1.24-0.83s-1.24-0.27-2.25-0.27
		c-1.04,0-1.86,0.14-2.48,0.43c-0.79,0.37-1.38,0.92-1.79,1.64c-0.41,0.72-0.61,1.57-0.61,2.54c0,0.92,0.19,1.74,0.56,2.46
		c0.37,0.71,0.9,1.25,1.58,1.61c0.68,0.36,1.55,0.54,2.63,0.54c0.87,0,1.63-0.1,2.26-0.3c0.64-0.2,1.37-0.58,2.2-1.13v-3.8h-4.32
		V20.3z"/>
</g>
</svg>
