<?xml version="1.0" encoding="utf-8"?>
<!-- Generator: Adobe Illustrator 24.3.0, SVG Export Plug-In . SVG Version: 6.00 Build 0)  -->
<svg version="1.1" id="Layer_1" xmlns="http://www.w3.org/2000/svg" xmlns:xlink="http://www.w3.org/1999/xlink" x="0px" y="0px"
	 viewBox="0 0 20 20" style="enable-background:new 0 0 20 20;" xml:space="preserve">
<style type="text/css">
	.st0{fill:none;stroke:#000000;stroke-width:2;stroke-linecap:round;stroke-linejoin:round;stroke-miterlimit:10;}
	.st1{fill:#FFFFFF;}
	.st2{fill:#747373;}
	.st3{fill:#DD052B;}
	.st4{fill:#FFFFFF;stroke:#000000;stroke-miterlimit:10;stroke-dasharray:4;}
	.st5{fill:none;stroke:#000000;stroke-miterlimit:10;}
	.st6{fill:none;stroke:#000000;stroke-miterlimit:10;stroke-dasharray:4,4;}
	.st7{fill:#010101;}
	.st8{fill:#292A2A;}
	.st9{fill:#FEFEFE;}
	.st10{fill:#FF0000;}
	.st11{fill:none;stroke:#000000;stroke-width:2;stroke-linejoin:round;stroke-miterlimit:10;}
	.st12{fill:#FFFFFF;stroke:#000000;stroke-width:1.9221;stroke-linecap:round;stroke-linejoin:round;stroke-miterlimit:10;}
	.st13{fill:#FFFFFF;stroke:#000000;stroke-width:2;stroke-linecap:round;stroke-linejoin:round;stroke-miterlimit:10;}
	.st14{fill:#E6E6E6;}
	.st15{fill-rule:evenodd;clip-rule:evenodd;}
	.st16{enable-background:new    ;}
</style>
<path d="M20,11.49V8.51l-1.94-0.29c-0.21-0.96-0.59-1.85-1.1-2.66l1.17-1.58l-2.11-2.11l-1.58,1.17c-0.8-0.51-1.7-0.89-2.66-1.1
	L11.49,0H8.51L8.22,1.94c-0.96,0.21-1.85,0.59-2.66,1.1L3.98,1.87L1.87,3.98l1.17,1.58c-0.51,0.8-0.89,1.7-1.1,2.66L0,8.51v2.99
	l1.94,0.29c0.21,0.96,0.59,1.85,1.1,2.66l-1.17,1.58l2.11,2.11l1.58-1.17c0.8,0.51,1.7,0.89,2.66,1.1L8.51,20h2.99l0.29-1.94
	c0.96-0.21,1.85-0.59,2.66-1.1l1.58,1.17l2.11-2.11l-1.17-1.58c0.51-0.8,0.89-1.7,1.1-2.66L20,11.49z M10,14.22
	c-2.33,0-4.22-1.89-4.22-4.22c0-2.33,1.89-4.22,4.22-4.22c2.33,0,4.22,1.89,4.22,4.22C14.22,12.33,12.33,14.22,10,14.22z"/>
</svg>
