<svg xmlns="http://www.w3.org/2000/svg" width="20" height="20" viewBox="0 0 20 20">
  <defs>
    <style>
      .cls-1 {
        fill: #444;
        fill-rule: evenodd;
      }
    </style>
  </defs>
  <path id="icon_" data-name="icon !" class="cls-1" d="M205,800a10,10,0,1,0,10,10A10,10,0,0,0,205,800Zm0,18a8,8,0,1,1,8-8A8.009,8.009,0,0,1,205,818Zm-0.007-4.678A1.079,1.079,0,0,0,203.9,814.4a1.006,1.006,0,0,0,.33.8,1.144,1.144,0,0,0,.773.286,1.11,1.11,0,0,0,.762-0.29,1.013,1.013,0,0,0,.326-0.8,1.026,1.026,0,0,0-.323-0.765A1.072,1.072,0,0,0,204.993,813.322Zm0.058-8.814a1.084,1.084,0,0,0-.831.338,1.322,1.322,0,0,0-.316.939q0,0.443.066,1.458l0.232,3.475a3.254,3.254,0,0,0,.218,1,0.547,0.547,0,0,0,.544.33,0.57,0.57,0,0,0,.551-0.341,2.816,2.816,0,0,0,.218-0.979l0.312-3.577q0.05-.493.05-0.972a2.924,2.924,0,0,0-.21-1.244A0.836,0.836,0,0,0,205.051,804.508Z" transform="translate(-195 -800)"/>
</svg>
