<svg xmlns="http://www.w3.org/2000/svg" width="19.97" height="16.75" viewBox="0 0 19.97 16.75">
  <defs>
    <style>
      .cls-1 {
        fill: #fff;
        fill-rule: evenodd;
      }
    </style>
  </defs>
  <path class="cls-1" d="M1208.19,337.743a7.409,7.409,0,1,0-1.51,2.135l5.79,4.1,1.53-2.129Zm-2.39-1.055a4.863,4.863,0,0,1-.91,1.284,4.774,4.774,0,0,1-2.63,1.344h0a4.806,4.806,0,1,1-1.59-9.48,5,5,0,0,1,.8-0.065,4.84,4.84,0,0,1,4.76,4.016A4.767,4.767,0,0,1,1205.8,336.688Z" transform="translate(-1194.03 -327.219)"/>
</svg>
