<svg xmlns="http://www.w3.org/2000/svg" width="20" height="20" viewBox="0 0 20 20">
  <defs>
    <style>
      .cls-1 {
        fill: #fff;
        fill-rule: evenodd;
      }
    </style>
  </defs>
  <path id="icon" class="cls-1" d="M1204,453.784h2a0.75,0.75,0,0,0,0-1.5h-2A0.75,0.75,0,0,0,1204,453.784Zm-4.5,0h2a0.75,0.75,0,0,0,0-1.5h-2A0.75,0.75,0,0,0,1199.5,453.784Zm9,0h2a0.75,0.75,0,0,0,0-1.5h-2A0.75,0.75,0,0,0,1208.5,453.784Zm-4.5,3.25h2a0.75,0.75,0,0,0,0-1.5h-2A0.75,0.75,0,0,0,1204,457.034Zm-4.5,0h2a0.75,0.75,0,0,0,0-1.5h-2A0.75,0.75,0,0,0,1199.5,457.034Zm9,0h2a0.75,0.75,0,0,0,0-1.5h-2A0.75,0.75,0,0,0,1208.5,457.034Zm-4.5,3.25h2a0.75,0.75,0,0,0,0-1.5h-2A0.75,0.75,0,0,0,1204,460.284Zm-4.5,0h2a0.75,0.75,0,0,0,0-1.5h-2A0.75,0.75,0,0,0,1199.5,460.284Zm9,0h2a0.75,0.75,0,0,0,0-1.5h-2A0.75,0.75,0,0,0,1208.5,460.284ZM1211.21,444h-12.42a3.794,3.794,0,0,0-3.79,3.8v12.41a3.794,3.794,0,0,0,3.79,3.8h12.42a3.794,3.794,0,0,0,3.79-3.8V447.8A3.794,3.794,0,0,0,1211.21,444Zm-1.71,2a1,1,0,1,1-1,1A1,1,0,0,1,1209.5,446Zm-9,0a1,1,0,1,1-1,1A1,1,0,0,1,1200.5,446Zm13.08,14.2a2.378,2.378,0,0,1-2.37,2.372h-12.42a2.727,2.727,0,0,1-2.37-1.372V449.78h17.16v10.425Z" transform="translate(-1195 -444)"/>
</svg>
