<svg xmlns="http://www.w3.org/2000/svg" width="20" height="20" viewBox="0 0 20 20">
  <defs>
    <style>
      .cls-1 {
        fill: #3eb2c0;
        fill-rule: evenodd;
      }
    </style>
  </defs>
  <path id="_" data-name="!" class="cls-1" d="M1125,915a10,10,0,1,0,10,10A10,10,0,0,0,1125,915Zm0.77,15.2a1.113,1.113,0,0,1-.76.29,1.151,1.151,0,0,1-.78-0.286,1.006,1.006,0,0,1-.33-0.8,1.1,1.1,0,0,1,1.87-.765,1.018,1.018,0,0,1,.33.765A1.008,1.008,0,0,1,1125.77,930.2Zm0.27-8.045-0.31,3.576a2.546,2.546,0,0,1-.22.98,0.564,0.564,0,0,1-.55.341,0.543,0.543,0,0,1-.54-0.33,3.531,3.531,0,0,1-.22-1l-0.23-3.475c-0.04-.677-0.07-1.163-0.07-1.458a1.323,1.323,0,0,1,.32-0.939,1.087,1.087,0,0,1,.83-0.338,0.825,0.825,0,0,1,.83.432,2.76,2.76,0,0,1,.22,1.244A8.049,8.049,0,0,1,1126.04,922.156Z" transform="translate(-1115 -915)"/>
</svg>
