<svg xmlns="http://www.w3.org/2000/svg" width="17.07" height="15" viewBox="0 0 17.07 15">
  <defs>
    <style>
      .cls-1 {
        fill: #fff;
        fill-rule: evenodd;
      }
    </style>
  </defs>
  <path class="cls-1" d="M1660.18,161.5a0.606,0.606,0,0,1-.04.23,0.286,0.286,0,0,1-.03.128,1.061,1.061,0,0,1-.19.294l-2.68,2.754a0.89,0.89,0,0,1-1.27,0,0.941,0.941,0,0,1,0-1.3l1.15-1.184h-5.27a0.918,0.918,0,0,1,0-1.836h5.27l-1.15-1.184a0.941,0.941,0,0,1,0-1.3,0.882,0.882,0,0,1,1.27,0l2.68,2.754a1.061,1.061,0,0,1,.19.294,0.286,0.286,0,0,1,.03.128A0.606,0.606,0,0,1,1660.18,161.5Zm-6.66,7.5h-9.41a0.992,0.992,0,0,1-.98-1V155a0.991,0.991,0,0,1,.98-1h9.41a0.991,0.991,0,0,1,.98,1v3.639a0.975,0.975,0,1,1-1.95,0V156h-7.46V167h7.46v-2.052a0.975,0.975,0,1,1,1.95,0V168A0.992,0.992,0,0,1,1653.52,169Z" transform="translate(-1643.12 -154)"/>
</svg>
