<?xml version="1.0" encoding="utf-8"?>
<!-- Generator: Adobe Illustrator 25.1.0, SVG Export Plug-In . SVG Version: 6.00 Build 0)  -->
<svg version="1.1" id="Layer_1" xmlns="http://www.w3.org/2000/svg" xmlns:xlink="http://www.w3.org/1999/xlink" x="0px" y="0px"
	 viewBox="0 0 16 16" style="enable-background:new 0 0 16 16;" xml:space="preserve">
<style type="text/css">
	.st0{fill-rule:evenodd;clip-rule:evenodd;fill:#FFFFFF;}
	.st1{fill:#DF2F5D;}
	.st2{fill:#FFFFFF;}
</style>
<path class="st0" d="M14.1,14.8h-0.9v1.1c0,0.1-0.1,0.1-0.1,0.1h-0.5c-0.1,0-0.1-0.1-0.1-0.1v-1.1H3.7v1.1C3.7,16,3.6,16,3.6,16H3.1
	c-0.1,0-0.1-0.1-0.1-0.1v-1.1h-1C0.9,14.8,0,14,0,13V1.8C0,0.8,0.9,0,1.9,0h12.2c1,0,1.9,0.8,1.9,1.8V13C16,14,15.1,14.8,14.1,14.8z
	 M5.9,4.2c-1.7,0-3,1.3-3,2.9s1.4,2.9,3,2.9c1.7,0,3-1.3,3-2.9S7.6,4.2,5.9,4.2z M11.9,4.8c-0.6,0-1,0.4-1,1c0,0.4,0.2,0.7,0.5,0.8
	v2.5c0,0.3,0.2,0.5,0.5,0.5H12c0.3,0,0.5-0.2,0.5-0.5V6.6c0.2-0.2,0.4-0.5,0.4-0.8C12.9,5.2,12.4,4.8,11.9,4.8z M5.9,8.9
	c-1,0-1.8-0.8-1.8-1.8s0.8-1.8,1.8-1.8s1.8,0.8,1.8,1.8S6.9,8.9,5.9,8.9z"/>
</svg>
