<?xml version="1.0" encoding="utf-8"?>
<!-- Generator: Adobe Illustrator 25.1.0, SVG Export Plug-In . SVG Version: 6.00 Build 0)  -->
<svg version="1.1" id="Layer_1" xmlns="http://www.w3.org/2000/svg" xmlns:xlink="http://www.w3.org/1999/xlink" x="0px" y="0px"
	 viewBox="0 0 19 19" style="enable-background:new 0 0 19 19;" xml:space="preserve">
<style type="text/css">
	.st0{fill-rule:evenodd;clip-rule:evenodd;fill:#FFFFFF;}
	.st1{fill:#DF2F5D;}
	.st2{fill:#FFFFFF;}
</style>
<g>
	<circle id="new_4_" class="st1" cx="16.5" cy="2.5" r="2.5"/>
	<g>
		<path class="st2" d="M5.9,8.4c-1,0-1.8,0.8-1.8,1.8s0.8,1.8,1.8,1.8s1.8-0.8,1.8-1.8S6.9,8.4,5.9,8.4z"/>
		<path class="st2" d="M12.1,3H1.9C0.9,3,0,3.8,0,4.8V16c0,1,0.9,1.8,1.9,1.8h1v1.1c0,0,0,0.1,0.1,0.1h0.5c0,0,0.1,0,0.1-0.1v-1.1
			h8.7v1.1c0,0,0,0.1,0.1,0.1H13c0,0,0.1,0,0.1-0.1v-1.1h0.9c1.1,0,1.9-0.8,1.9-1.8V6.9C13.9,6.7,12.3,5.1,12.1,3z M5.9,13.1
			c-1.6,0-3-1.3-3-2.9s1.3-2.9,3-2.9s3,1.3,3,2.9S7.6,13.1,5.9,13.1z M12.5,9.6v2.5c0,0.3-0.2,0.5-0.5,0.5h-0.1
			c-0.3,0-0.5-0.2-0.5-0.5V9.6c-0.3-0.2-0.5-0.5-0.5-0.8c0-0.6,0.5-1,1-1s1,0.4,1,1C12.9,9.1,12.7,9.4,12.5,9.6z"/>
	</g>
</g>
</svg>
