<svg xmlns="http://www.w3.org/2000/svg" width="16" height="16" viewBox="0 0 16 16">
  <defs>
    <style>
      .cls-1 {
        fill: #fff;
        fill-rule: evenodd;
      }
    </style>
  </defs>
  <path id="icon코인" class="cls-1" d="M673.154,692.82a1.532,1.532,0,0,1-2.127-.092,2.9,2.9,0,0,1-.389-1.763,2.788,2.788,0,0,1,.326-1.523,1.5,1.5,0,0,1,1.888-.506,1.375,1.375,0,0,1,.489.423,1.8,1.8,0,0,1,.232.517l2.1-.47a3.47,3.47,0,0,0-1.238-1.815,4.619,4.619,0,0,0-5.17.44,4.022,4.022,0,0,0-1.018,2.95,4.38,4.38,0,0,0,.579,2.363,3.255,3.255,0,0,0,1.375,1.289,4.946,4.946,0,0,0,2.054.367,4.178,4.178,0,0,0,1.706-.3,2.879,2.879,0,0,0,1.123-.892,3.854,3.854,0,0,0,.663-1.472l-2.088-.633A2.374,2.374,0,0,1,673.154,692.82ZM672,683a8,8,0,1,0,8,8A8,8,0,0,0,672,683Zm0,15a7,7,0,1,1,7-7A7.008,7.008,0,0,1,672,698Z" transform="translate(-664 -683)"/>
</svg>
