<svg id="쪽지알람" xmlns="http://www.w3.org/2000/svg" width="14" height="19" viewBox="0 0 14 19">
  <defs>
    <style>
      .cls-1 {
        fill: #fff;
        fill-rule: evenodd;
      }

      .cls-2 {
        fill: #df2f5d;
      }
    </style>
  </defs>
  <path class="cls-1" d="M1513.8,138.6l-3.7-3.9v7.8Zm0.7,0.7-3.7,3.9,6.5,6.8,3.7-3.9Zm-2.8,10.7-3.7-3.9,2.1-2.2,3.8,3.9Zm6.96-12.5a3.463,3.463,0,0,1-1.92-.581l-1.64,1.681,3.8,3.9v-5.024C1518.82,137.482,1518.75,137.5,1518.66,137.5Zm-3.5-3.5h-4.36l3.7,3.9,1.53-1.616A3.489,3.489,0,0,1,1515.16,134Z" transform="translate(-1508 -131)"/>
  <circle id="new" class="cls-2" cx="11.5" cy="2.5" r="2.5"/>
</svg>
